<svg width="92" height="50" viewBox="0 0 92 50" fill="none" xmlns="http://www.w3.org/2000/svg">
<g id="Group">
<path id="Vector" d="M30.4284 32.0443C30.2721 31.6101 30.068 31.1976 29.8639 30.7808C29.6902 30.4248 29.5123 30.0731 29.3038 29.7387C28.6352 28.6663 27.8276 27.7023 26.9375 26.8079C26.386 26.2564 25.8042 25.7267 25.1963 25.2404C24.4235 24.6195 23.6289 24.0246 22.8126 23.4689C21.8704 22.8263 20.8631 22.2878 19.8514 21.7625C18.7442 21.1893 17.598 20.7117 16.43 20.2688C15.2794 19.8346 14.1113 19.4569 12.9173 19.1486C11.7493 18.8446 10.5683 18.6015 9.36562 18.4929C8.77946 18.4365 8.19327 18.38 7.60711 18.367C6.96016 18.354 6.30888 18.3627 5.66193 18.4148C5.00195 18.4712 4.35065 18.5798 3.69501 18.6883C3.06543 18.7969 2.43589 18.9315 1.8367 19.1573C1.45461 19.3005 1.10722 19.4959 0.820649 19.7912C0.486319 20.1299 0.251884 20.5337 0.0912321 20.9809C0.0782063 21.02 0.0304089 21.0504 1.52588e-05 21.0851V21.5758C1.52588e-05 21.5758 0.0564669 21.5844 0.0608088 21.5931C0.169357 21.8493 0.390822 21.9405 0.629629 22.0186C1.08553 22.1619 1.55445 22.1793 2.02338 22.1446C2.17534 22.1315 2.33166 22.0794 2.46626 22.01C2.63994 21.9231 2.67035 21.7711 2.58785 21.5931C2.49667 21.3977 2.32731 21.3066 2.13192 21.2675C1.92351 21.2197 1.70643 21.2067 1.49367 21.1676C1.3721 21.1459 1.25923 21.1112 1.13766 21.0851C1.13766 21.0634 1.13765 21.046 1.13331 21.0243C1.25488 20.9722 1.3721 20.9158 1.49367 20.8767C2.43153 20.5728 3.40414 20.4989 4.38108 20.4685C5.16263 20.4468 5.94848 20.4859 6.73003 20.5033C6.99923 20.5076 7.26847 20.525 7.53333 20.5554C8.0891 20.6205 8.6405 20.6813 9.19193 20.7725C9.8823 20.8854 10.5683 21.0113 11.25 21.1589C12.4788 21.4325 13.6858 21.7885 14.8712 22.2184C15.8264 22.5657 16.7686 22.9305 17.6805 23.3733C18.3317 23.6903 18.9787 24.0116 19.6083 24.3633C20.2335 24.715 20.8414 25.0884 21.4405 25.4836C22.2091 25.9916 22.9472 26.5517 23.6463 27.1552C24.3453 27.7544 24.9923 28.3971 25.5784 29.1048C26.3122 29.9949 26.9201 30.9632 27.3717 32.027C27.6756 32.7391 27.8623 33.4772 27.8536 34.2544C27.8536 34.5063 27.8102 34.7581 27.7755 35.0056C27.6278 35.9565 27.224 36.7902 26.5684 37.4979C25.8129 38.3099 24.8664 38.8439 23.8503 39.2608C22.9733 39.6255 22.0571 39.8469 21.1149 39.9902C20.4289 40.0988 19.7385 40.1639 19.0482 40.19C18.1711 40.2203 17.2897 40.2203 16.4126 40.1248C15.8785 40.064 15.3488 39.9989 14.8234 39.8904C14.7076 39.8672 14.6469 39.7963 14.6411 39.6776C14.6281 39.2521 14.6107 38.8309 14.602 38.4054C14.5846 37.7063 14.5716 37.0073 14.5586 36.3082C14.5455 35.6091 14.5282 34.9101 14.5152 34.211C14.5065 33.8332 14.5065 33.4512 14.5065 33.0734C14.5065 33.0083 14.5152 32.9475 14.5239 32.852C14.9146 32.8737 15.288 32.8997 15.6571 32.9084C16.2172 32.9258 16.7686 33.0083 17.32 33.0908C18.1667 33.2167 19.0091 33.373 19.834 33.5901C20.2856 33.7117 20.7459 33.8289 21.1627 34.046C21.6012 34.2761 21.6577 34.6148 21.2973 34.9535C21.1323 35.1098 20.9282 35.2227 20.7328 35.3486C20.6025 35.4311 20.4549 35.4962 20.3247 35.5787C20.1597 35.6829 20.1553 35.8436 20.3116 35.9565C20.3637 35.9956 20.4289 36.026 20.4897 36.0433C20.6373 36.0868 20.7893 36.1389 20.9413 36.1649C21.2278 36.217 21.5144 36.2561 21.8053 36.204C22.4088 36.0911 22.8821 35.7611 23.2425 35.2835C23.5681 34.8493 23.7809 34.3673 23.694 33.7898C23.6029 33.195 23.3163 32.713 22.8995 32.3005C22.2829 31.6926 21.5231 31.3366 20.7068 31.0934C20.2161 30.9458 19.7168 30.8286 19.2175 30.707C18.5314 30.542 17.8324 30.4378 17.129 30.3683C16.8989 30.3466 16.6688 30.3119 16.4387 30.3075C15.8872 30.2989 15.3358 30.3032 14.7844 30.2989C14.7323 30.2989 14.6802 30.3119 14.6281 30.3162C14.5195 30.3249 14.4544 30.2815 14.4631 30.1642C14.4631 30.1208 14.4631 30.0731 14.4631 30.0296C14.4327 29.4826 14.411 28.9311 14.3762 28.384C14.3415 27.8326 14.2416 27.2942 14.0984 26.7645C13.9724 26.3042 13.8204 25.8526 13.5295 25.4662C13.3819 25.2708 13.2169 25.0884 12.9737 24.9973C12.8261 24.9408 12.7089 24.9842 12.6134 25.0928C12.5656 25.1492 12.5265 25.2144 12.5005 25.2838C12.3138 25.7875 12.2139 26.3129 12.1401 26.8426C12.0837 27.2681 12.0359 27.698 11.9925 28.1235C11.9448 28.6315 11.9057 29.1439 11.8709 29.6519C11.8579 29.8603 11.8666 30.0687 11.8622 30.2771C11.8622 30.5594 11.8449 30.5767 11.5757 30.6288C11.5626 30.6288 11.5453 30.6288 11.5322 30.6332C11.1458 30.7027 10.7507 30.7548 10.3686 30.8459C9.22231 31.1152 8.09342 31.4582 7.02096 31.9445C6.37401 32.2354 5.76181 32.5871 5.24946 33.0995C4.65462 33.6943 4.46793 34.5236 4.88041 35.3312C5.14961 35.861 5.5013 36.3299 5.90076 36.7641C6.56942 37.4979 7.32925 38.1362 8.11948 38.7354C8.9488 39.3693 9.84323 39.9121 10.7768 40.3853C11.0546 40.5286 11.3368 40.6676 11.6191 40.8022C11.7059 40.8456 11.7667 40.8934 11.7797 40.9976C11.8058 41.2841 11.8275 41.575 11.8753 41.8616C11.923 42.1482 11.9708 42.4348 12.062 42.7083C12.2096 43.1469 12.5092 43.4508 12.9781 43.5333C13.3037 43.5897 13.6337 43.5767 13.955 43.4812C14.2025 43.4074 14.3806 43.2424 14.4674 42.9905C14.5499 42.7517 14.6107 42.5042 14.602 42.2481C14.602 42.1656 14.6107 42.0787 14.615 42.0006C14.6628 41.9962 14.6758 41.9919 14.6888 41.9919C15.5182 42.1742 16.3431 42.3696 17.1898 42.4391C17.6848 42.4782 18.1841 42.5346 18.6791 42.5563C19.3564 42.5824 20.0381 42.565 20.7111 42.4782C21.2582 42.4087 21.8053 42.3479 22.3437 42.2524C23.8851 41.9745 25.3613 41.4839 26.7291 40.7153C27.3803 40.3506 28.0012 39.9338 28.5136 39.3823C28.7784 39.1001 29.0303 38.8048 29.2647 38.4966C29.7554 37.8626 30.1331 37.1636 30.4154 36.4167C30.6064 35.9044 30.715 35.3747 30.7627 34.8319C30.7888 34.5453 30.8105 34.2544 30.8018 33.9635C30.7975 33.7117 30.7671 33.4598 30.715 33.2123C30.6325 32.8129 30.5456 32.4091 30.411 32.027L30.4284 32.0443ZM11.758 39.0437C11.6017 38.9916 11.4454 38.9438 11.2891 38.8873C9.78242 38.3446 8.42777 37.524 7.15124 36.5731C6.59981 36.1649 6.10047 35.6916 5.66627 35.1576C5.55338 35.0186 5.4709 34.8623 5.46222 34.6713C5.45353 34.4802 5.52734 34.3413 5.67931 34.2327C5.97022 34.033 6.2915 33.8897 6.63017 33.7898C7.47251 33.5423 8.33223 33.3556 9.20062 33.2384C9.72166 33.1689 10.247 33.1168 10.7724 33.056C11.0329 33.0256 11.2891 33.0039 11.5496 32.9779C11.6061 32.9735 11.6669 32.9779 11.7624 32.9779V39.0393L11.758 39.0437Z" fill="#00FFFF"/>
<path id="Vector_2" d="M74.6815 31.5971C74.421 31.1281 74.0563 30.7721 73.5135 30.6679C73.0967 30.5854 72.6842 30.6549 72.2891 30.8155C71.6726 31.0673 71.1428 31.4538 70.6565 31.8923C70.0487 32.4394 69.4799 33.0343 68.9588 33.6682C68.2467 34.541 67.5781 35.4441 66.9702 36.3863C66.9485 36.421 66.9268 36.4645 66.9051 36.4992C66.8877 36.4905 66.8704 36.4775 66.8486 36.4688C66.8356 36.3906 66.8095 36.3125 66.8139 36.2343C66.8182 36.0433 66.8313 35.8479 66.853 35.6569C66.9268 34.9969 67.1439 34.3803 67.4522 33.7985C67.8647 33.0213 68.2988 32.2614 68.7374 31.4972C68.9024 31.2106 69.024 30.9067 69.0717 30.581C69.1151 30.3118 69.1802 30.0426 69.1021 29.7647C69.0456 29.5694 68.9631 29.5129 68.7764 29.5867C68.6505 29.6388 68.5203 29.7126 68.4204 29.8082C68.1295 30.0817 67.843 30.3639 67.5651 30.6592C66.9051 31.3539 66.3623 32.1398 65.9238 32.9909C65.4418 33.9287 65.0858 34.9057 64.999 35.9738C64.9469 36.6121 64.9903 37.2373 65.1813 37.8452C65.2682 38.1274 65.3984 38.3967 65.5287 38.6659C65.5764 38.7701 65.5895 38.8526 65.533 38.9568C65.4418 39.1261 65.3637 39.3041 65.2899 39.4822C64.9729 40.2681 64.6473 41.0496 64.3477 41.8442C64.0437 42.6518 63.7962 43.4768 63.6226 44.3235C63.5183 44.8315 63.4228 45.3439 63.3707 45.8606C63.3317 46.26 63.3317 46.6682 63.3707 47.0633C63.4315 47.6668 63.666 48.2096 64.022 48.7046C64.3173 49.1171 64.6559 49.4731 65.1335 49.6772C65.1596 49.6902 65.1726 49.7293 65.19 49.7597H65.5504C65.5504 49.7597 65.5547 49.7076 65.5677 49.6989C65.7718 49.56 65.8413 49.3602 65.8674 49.1301C65.9195 48.7176 65.9716 48.3051 66.0497 47.897C66.1974 47.1371 66.345 46.3816 66.5186 45.6304C66.8703 44.1194 67.3697 42.6605 67.9428 41.219C68.0297 41.0062 68.1165 40.7978 68.2077 40.585C68.3162 40.5937 68.3987 40.6024 68.4812 40.6111C68.694 40.6328 68.9111 40.6806 69.1238 40.6719C69.5233 40.6588 69.9271 40.6111 70.3135 40.4938C71.1689 40.229 71.907 39.76 72.5627 39.1608C73.0707 38.6963 73.5135 38.1752 73.9216 37.6238C74.6337 36.6599 75.0375 35.5743 75.12 34.3846C75.1547 33.8983 75.12 33.4033 75.081 32.917C75.0375 32.4481 74.8986 32.0009 74.6685 31.584L74.6815 31.5971ZM73.2443 35.4615C72.9274 35.9999 72.5192 36.4645 72.0546 36.8726C71.6986 37.1852 71.2731 37.398 70.8345 37.563C70.4698 37.7019 70.0834 37.8018 69.7056 37.9104C69.6231 37.9364 69.5319 37.9277 69.3843 37.9407C69.4842 37.7454 69.5536 37.589 69.6405 37.4414C70.2223 36.4037 70.8953 35.418 71.6465 34.4932C72.0503 33.9982 72.4801 33.5249 72.91 33.0473C72.9968 32.9474 73.1097 32.8649 73.2226 32.7998C73.4701 32.6565 73.6741 32.739 73.7653 33.0082C73.787 33.069 73.8001 33.1385 73.8044 33.2036C73.8696 34.0156 73.6568 34.7624 73.2487 35.4615H73.2443Z" fill="#00FFFF"/>
<path id="Vector_3" d="M91.7063 33.056C91.5369 32.9084 91.3329 32.8867 91.1201 32.8867C89.4094 32.8867 87.6986 32.8867 85.9923 32.8867C85.9054 32.8867 85.8186 32.878 85.7318 32.878C85.684 32.3309 85.6406 31.8142 85.5885 31.2975C85.5451 30.8329 85.5016 30.3683 85.4408 29.9037C85.38 29.4131 85.3019 28.9181 85.2237 28.4274C85.1586 28.0323 85.0891 27.6372 85.011 27.2464C84.9589 26.9772 84.846 26.8904 84.5811 26.8904C84.1643 26.8904 83.7431 26.8904 83.3263 26.8904C83.0397 26.8904 82.8921 27.0641 82.9399 27.355C83.0658 28.1365 83.2091 28.9181 83.322 29.704C83.4088 30.2902 83.4609 30.8807 83.5304 31.4712C83.5564 31.7144 83.5868 31.9575 83.6042 32.2007C83.6172 32.4221 83.6042 32.6392 83.6042 32.8867H83.3306C81.7024 32.8867 80.0742 32.8867 78.446 32.8867C78.3287 32.8867 78.2072 32.8997 78.0943 32.9258C77.9293 32.9648 77.7903 33.1298 77.7903 33.2948C77.786 33.7204 77.7816 34.1415 77.7903 34.567C77.7947 34.8015 77.9727 34.9622 78.2115 34.9752C78.2723 34.9752 78.3331 34.9752 78.3895 34.9752C80.0698 34.9752 81.7502 34.9752 83.4305 34.9752H83.7127C83.7127 35.0881 83.7127 35.1662 83.7127 35.2487C83.7127 36.4298 83.7345 37.6151 83.6216 38.7918C83.5868 39.1392 83.5651 39.4865 83.5347 39.8339C83.5173 40.0206 83.4913 40.203 83.487 40.3897C83.4783 40.6806 83.6563 40.8673 83.9516 40.8716C84.325 40.876 84.6984 40.876 85.0718 40.8716C85.3497 40.8716 85.5016 40.7501 85.5624 40.4765C85.5885 40.3549 85.5841 40.2247 85.5971 40.0988C85.6536 39.4258 85.7274 38.7528 85.7578 38.0797C85.7969 37.2721 85.7969 36.4602 85.8099 35.6482C85.8099 35.4832 85.8099 35.3226 85.8099 35.1576C85.8099 35.1011 85.8229 35.0447 85.8316 34.9752H86.1138C87.7508 34.9752 89.3833 34.9752 91.0202 34.9752C91.2807 34.9752 91.5413 34.9882 91.7497 34.7928C91.7497 34.7928 91.7627 34.7928 91.7714 34.7928V33.0517C91.7497 33.0517 91.7193 33.056 91.7063 33.0473V33.056Z" fill="#00FFFF"/>
<path id="Vector_4" d="M45.5688 30.5116C45.5688 30.5116 45.5427 30.4986 45.5297 30.4899C44.6613 30.0557 43.7191 29.9124 42.7639 29.8516C42.321 29.8256 41.8737 29.7952 41.4265 29.8256C40.8838 29.8603 40.341 29.8907 39.8026 29.9645C38.9864 30.0774 38.1918 30.2511 37.4233 30.5463C36.7893 30.7895 36.2032 31.1065 35.7386 31.6145C35.2393 32.1659 35.0004 32.8042 35.0743 33.5554C35.1264 34.0807 35.426 34.4151 35.8905 34.6061C36.1207 34.7016 36.3769 34.7624 36.6244 34.7928C37.3191 34.8797 38.0137 34.9448 38.7085 35.0186C39.338 35.0837 39.9676 35.1402 40.5972 35.1966C41.2051 35.2531 41.8043 35.366 42.3948 35.5179C42.8159 35.6265 43.2285 35.7654 43.5802 36.0303C43.9449 36.3038 43.9535 36.6946 43.6018 36.9942C43.5671 37.0246 43.528 37.0463 43.4933 37.0724C42.6119 37.6889 41.6176 38.0016 40.5625 38.1492C40.2108 38.2013 39.8504 38.2143 39.4944 38.2491C38.8214 38.3185 38.1527 38.3012 37.5014 38.1058C37.2236 38.0233 36.937 37.9451 36.7199 37.7367C36.594 37.6195 36.4767 37.4849 36.5158 37.2895C36.5549 37.0984 36.6547 36.9421 36.8284 36.8466C37.0716 36.712 37.3321 36.6512 37.6056 36.6816C37.8271 36.7077 38.0485 36.7554 38.2569 36.8292C38.7259 37.0029 39.1861 37.194 39.6463 37.385C39.9763 37.5196 40.3193 37.6064 40.6667 37.5934C41.1052 37.5761 41.5351 37.4762 41.9519 37.3242C42.1907 37.2374 42.4252 37.1419 42.6075 36.9551C42.8203 36.738 42.803 36.5123 42.5468 36.3429C42.4903 36.3038 42.4295 36.2735 42.3687 36.2474C42.0952 36.1345 41.8216 36.0129 41.5394 35.9131C41.0531 35.7394 40.5495 35.6439 40.0415 35.5614C39.6985 35.5049 39.3511 35.4441 39.0037 35.4311C38.5739 35.4181 38.1397 35.4311 37.7098 35.4745C37.1932 35.531 36.7068 35.6916 36.277 36.0043C35.6778 36.4428 35.4346 37.1505 35.6648 37.8583C35.7776 38.2056 35.9904 38.4922 36.2379 38.7527C36.6547 39.1956 37.1497 39.543 37.6968 39.8078C38.7172 40.3028 39.7896 40.5764 41.0271 40.5634C41.4179 40.5894 41.8998 40.5199 42.3731 40.4201C43.0635 40.2768 43.7147 40.038 44.3009 39.6211C45.0955 39.0567 45.5514 38.2968 45.6382 37.3286C45.6947 36.712 45.6078 36.1085 45.343 35.544C45.191 35.2227 44.9999 34.9231 44.722 34.6799C44.34 34.3499 43.8884 34.1676 43.4108 34.033C42.4947 33.7768 41.5524 33.6943 40.6146 33.5857C40.3106 33.551 40.0067 33.5163 39.7071 33.4815C39.2729 33.4294 38.8344 33.3773 38.4002 33.3209C38.0746 33.2775 37.7533 33.234 37.4276 33.1819C37.3321 33.1646 37.2409 33.1298 37.1541 33.0864C37.0064 33.0039 37.0021 32.8823 37.1541 32.7998C37.2713 32.7347 37.3972 32.6913 37.5275 32.6566C38.1527 32.4916 38.791 32.3787 39.4379 32.3352C40.0458 32.2962 40.6537 32.2484 41.2659 32.2093C41.5872 32.1876 41.9041 32.1833 42.2254 32.1659C42.829 32.1355 43.4325 32.1138 44.0317 32.0704C44.3486 32.0443 44.67 32.0009 44.9783 31.9271C45.3386 31.8403 45.6339 31.6405 45.8075 31.3019C46.0116 30.9024 45.9508 30.7113 45.5557 30.5116H45.5688Z" fill="#00FFFF"/>
<path id="Vector_5" d="M63.844 38.2707C63.7832 37.9711 63.6399 37.715 63.3924 37.5239C63.1884 37.3676 62.9713 37.2764 62.7064 37.3112C62.4416 37.3459 62.1724 37.3589 61.9075 37.4067C61.0131 37.5587 60.123 37.7236 59.2285 37.8843C59.0896 37.9104 58.955 37.9494 58.8117 37.9711C58.6554 37.9972 58.586 37.9234 58.612 37.7671C58.6163 37.7367 58.6293 37.7106 58.638 37.6846C58.7683 37.2504 58.8942 36.8162 59.0245 36.382C59.0635 36.2474 59.107 36.1171 59.1504 35.9825C59.2676 35.9651 59.3718 35.9391 59.4717 35.9347C60.2011 35.9 60.9306 35.8696 61.66 35.8392C61.9639 35.8262 62.2723 35.8088 62.5762 35.7871C62.6717 35.7784 62.7716 35.7654 62.8627 35.735C63.0494 35.6699 63.1884 35.5483 63.2145 35.3399C63.2362 35.1575 63.2535 34.9708 63.2535 34.7841C63.2535 34.6278 63.2405 34.4715 63.2188 34.3195C63.1884 34.1285 63.0712 34.0112 62.8714 34.0025C62.3678 33.9722 61.8598 33.9461 61.3561 33.9287C61.1477 33.92 60.9393 33.9504 60.7309 33.9635C60.5138 33.9765 60.301 33.9895 60.0839 34.0025C60.0405 34.0025 60.0014 33.9895 59.958 33.9852C59.958 33.9504 59.945 33.9287 59.9493 33.907C60.0665 33.5293 60.1881 33.1559 60.3053 32.7781C60.327 32.6999 60.3792 32.6739 60.453 32.6695C60.9566 32.6392 61.4647 32.6088 61.9683 32.5784C62.2375 32.561 62.5024 32.5523 62.7716 32.5263C63.2839 32.4742 63.7919 32.4177 64.2999 32.3526C64.5431 32.3222 64.7862 32.2744 65.0207 32.2093C65.2682 32.1398 65.3507 32.0182 65.3159 31.7577C65.2986 31.6231 65.2422 31.4885 65.177 31.3626C64.9556 30.9371 64.6951 30.5376 64.3043 30.2467C64.0655 30.073 63.8093 29.9428 63.5053 29.9428C62.7455 29.9384 61.9857 29.9341 61.2258 30.0253C60.6657 30.0904 60.1012 30.1425 59.5411 30.2076C58.7205 30.2988 57.9086 30.4464 57.101 30.6201C56.9273 30.6592 56.7536 30.7156 56.593 30.7895C56.3889 30.885 56.3238 31.05 56.415 31.2497C56.7015 31.8923 57.1444 32.3482 57.8825 32.4481C57.9954 32.4655 58.1083 32.4872 58.2429 32.5089C57.978 33.056 57.7262 33.5857 57.4744 34.1024C57.2269 34.1632 57.0098 34.211 56.797 34.2761C56.5365 34.3499 56.441 34.5366 56.441 34.8015C56.441 35.1749 56.5322 35.5223 56.6668 35.8609C56.7015 35.9521 56.7058 36.0216 56.6668 36.1128C56.5495 36.4341 56.428 36.7554 56.3368 37.0854C56.1674 37.7193 56.0328 38.3532 56.124 39.0176C56.1718 39.3649 56.263 39.6862 56.454 39.9771C56.6537 40.2767 56.8839 40.546 57.1661 40.7717C57.5352 41.067 57.952 41.2363 58.4383 41.245C59.0201 41.258 59.5803 41.1408 60.1273 40.9541C61.0782 40.6328 61.9683 40.1812 62.7933 39.6037C63.0668 39.4127 63.323 39.1912 63.5705 38.9698C63.7702 38.7874 63.8918 38.553 63.8353 38.2707H63.844Z" fill="#00FFFF"/>
<path id="Vector_6" d="M53.953 29.8517C53.5883 29.348 53.1585 28.9051 52.6375 28.5577C52.568 28.5143 52.4985 28.4666 52.4247 28.4362C52.1295 28.3233 51.8819 28.4535 51.8515 28.7618C51.8298 28.9963 51.8299 29.2438 51.882 29.4696C52.0122 30.0167 52.1945 30.5551 52.3291 31.1022C52.5853 32.1486 52.8328 33.195 53.063 34.2458C53.1845 34.8102 53.2713 35.3834 53.3538 35.9565C53.3799 36.1215 53.3539 36.2995 53.3235 36.4645C53.2931 36.6339 53.1889 36.6643 53.0543 36.5601C53.0065 36.5253 52.9674 36.4776 52.9327 36.4298C52.8545 36.3213 52.7721 36.217 52.6983 36.0998C52.2814 35.4311 51.8732 34.7538 51.4521 34.0851C50.905 33.208 50.3318 32.344 49.6632 31.5494C49.4548 31.3019 49.2247 31.0631 48.9772 30.8503C48.6298 30.5551 48.2694 30.5855 47.9351 30.8981C47.6876 31.1239 47.5226 31.4104 47.4141 31.7231C47.2491 32.2007 47.0841 32.6783 46.9669 33.1689C46.7671 33.9766 46.6239 34.7972 46.5544 35.6265C46.5023 36.2344 46.4458 36.8379 46.4285 37.4458C46.4154 37.9278 46.4328 38.4141 46.4762 38.8917C46.5023 39.1826 46.5718 39.4779 46.6629 39.7601C46.7932 40.1596 47.1666 40.5156 47.731 40.4765C48.1001 40.4505 48.4127 40.2291 48.5386 39.8774C48.6689 39.517 48.7123 39.1392 48.747 38.7658C48.7948 38.2404 48.8165 37.715 48.8383 37.1853C48.86 36.6339 48.8643 36.0868 48.8904 35.5353C48.9077 35.2097 48.9468 34.884 48.9859 34.5627C48.9946 34.4889 49.0423 34.4195 49.0901 34.3066C49.1726 34.3977 49.2334 34.4542 49.2725 34.5193C49.4374 34.7929 49.6068 35.0664 49.7501 35.353C50.1625 36.1693 50.588 36.9812 51.0743 37.7585C51.4521 38.3577 51.8385 38.9438 52.3509 39.4475C52.8328 39.9164 53.6187 40.0641 54.2526 39.6168C54.6695 39.3259 54.9517 38.9351 55.1254 38.4575C55.3946 37.7107 55.5162 36.9291 55.5552 36.1432C55.6117 35.1315 55.5552 34.1242 55.3425 33.1255C55.0863 31.9402 54.6738 30.8286 53.953 29.843V29.8517Z" fill="#00FFFF"/>
<path id="Vector_7" d="M32.7426 28.384C33.2202 28.4752 33.6935 28.4361 34.1581 28.3493C35.0786 28.1756 35.9166 27.8022 36.7112 27.3115C37.4276 26.8687 38.0572 26.3302 38.6477 25.7354C39.0037 25.375 39.299 24.9755 39.4987 24.5153C39.7202 24.0073 39.8287 23.4819 39.6637 22.9305C39.4032 22.0707 38.7736 21.6278 37.9313 21.4411C37.7967 21.4107 37.6838 21.3717 37.597 21.2544C37.4146 21.0156 37.1714 20.8419 36.9065 20.6943C36.4376 20.4295 35.9296 20.3383 35.3956 20.3426C35.0829 20.373 34.7703 20.3904 34.4664 20.4425C33.7022 20.5771 32.9901 20.8506 32.3171 21.2327C31.4227 21.7364 30.6368 22.3703 30.0333 23.204C29.5296 23.8987 29.2213 24.6542 29.3473 25.5357C29.4037 25.9221 29.4992 26.3085 29.7423 26.6125C30.0246 26.9642 30.1418 27.3376 30.1158 27.7848C30.0897 28.1626 30.2634 28.4926 30.5065 28.7791C30.8148 29.1352 31.1014 29.0918 31.4053 28.7487C31.4401 28.7097 31.4618 28.6619 31.4878 28.6185C31.5486 28.5099 31.6137 28.4014 31.6745 28.2885C31.718 28.2017 31.7787 28.1626 31.8742 28.2017C32.1565 28.3059 32.4517 28.3319 32.7426 28.3884V28.384ZM35.1698 23.8162C35.4259 23.6165 35.6995 23.4298 35.9731 23.2518C36.3595 22.9999 36.7806 22.8349 37.2365 22.7741C37.9443 22.683 38.4002 23.2561 38.2873 23.8336C38.1918 24.3242 37.9139 24.689 37.5665 25.0059C36.9587 25.5574 36.2466 25.9481 35.4694 26.2043C34.9093 26.3867 34.3318 26.4952 33.737 26.4909C33.4981 26.4909 33.2593 26.4909 33.0205 26.4866C32.9337 26.4866 32.8512 26.4562 32.721 26.4301C32.912 26.1653 33.0639 25.9481 33.2246 25.7354C33.789 25.0059 34.449 24.3763 35.1741 23.8119L35.1698 23.8162ZM30.9234 25.6312C30.7931 25.4792 30.754 25.3359 30.7367 25.184C30.7019 24.8323 30.8235 24.524 31.0102 24.2417C31.3358 23.7424 31.7831 23.3603 32.2868 23.0477C32.5733 22.8697 32.8599 22.7003 33.1986 22.6352C33.3505 22.6091 33.5025 22.5874 33.6588 22.5657C32.6211 23.4819 31.6832 24.4588 30.9234 25.6355V25.6312Z" fill="#00FFFF"/>
<path id="Vector_8" d="M34.4186 37.5718C34.3882 36.8466 34.3622 36.1172 34.3275 35.3921C34.3014 34.8884 34.2797 34.3847 34.2363 33.881C34.1842 33.2601 34.1234 32.6392 34.0496 32.0227C34.0061 31.6449 33.9323 31.2715 33.776 30.9241C33.6371 30.6115 33.4243 30.3727 33.0813 30.2772C32.8686 30.2164 32.7339 30.2468 32.621 30.4378C32.5125 30.6245 32.4213 30.8199 32.3605 31.024C32.1608 31.7014 32.0783 32.4048 32.0002 33.1038C31.935 33.677 31.9003 34.2588 31.8656 34.8363C31.8395 35.3313 31.8221 35.8306 31.8221 36.3299C31.8221 36.8336 31.8395 37.3416 31.8526 37.8453C31.8656 38.2448 31.8699 38.6486 31.909 39.048C31.9437 39.378 32.0002 39.708 32.087 40.0293C32.1738 40.355 32.391 40.5851 32.7123 40.7154C33.0987 40.8717 33.4938 40.876 33.8933 40.7544C34.0365 40.711 34.1364 40.6112 34.2233 40.4983C34.4013 40.2681 34.436 39.9946 34.449 39.721C34.4621 39.4258 34.449 39.1262 34.449 38.8266C34.4577 38.8266 34.462 38.8266 34.4707 38.8266C34.449 38.4098 34.4273 37.9973 34.4099 37.5804L34.4186 37.5718Z" fill="#00FFFF"/>
<path id="Vector_9" d="M78.954 18.4061C78.9801 18.4582 79.0061 18.5103 79.0408 18.5581C79.2666 18.9141 79.4924 19.2702 79.7182 19.6262C79.779 19.7261 79.8441 19.8216 79.9092 19.9215C80.0916 20.2428 80.2783 20.5641 80.4563 20.8897C80.782 21.4889 81.0946 22.0968 81.4159 22.696C81.4202 22.7264 81.4202 22.7568 81.4333 22.7829C81.6764 23.3169 81.9196 23.851 82.1671 24.3851C82.2669 24.6022 82.4449 24.7064 82.6837 24.7064C83.0658 24.7064 83.4436 24.7064 83.8257 24.7064C84.1947 24.7064 84.3728 24.4285 84.2295 24.0855C84.0471 23.6469 83.8648 23.2084 83.6737 22.7742C83.5478 22.4919 83.4001 22.2184 83.2612 21.9362C83.2438 21.8884 83.2265 21.8363 83.2047 21.7929C82.8357 21.0808 82.471 20.3644 82.0845 19.661C81.8761 19.2745 81.633 18.9098 81.4072 18.532C81.3117 18.6189 81.2118 18.7014 81.1206 18.7969C81.2118 18.7014 81.3117 18.6232 81.4072 18.532C81.3551 18.4539 81.2986 18.3757 81.2509 18.2976C81.0164 17.9285 80.7819 17.5638 80.5475 17.1947C80.2349 16.7475 79.9179 16.3002 79.6053 15.853C79.3795 15.5491 79.1711 15.2321 78.9323 14.9455C78.2506 14.1292 77.5602 13.3173 76.8655 12.514C76.6093 12.2188 76.3184 11.9452 76.0449 11.663C75.615 11.2375 75.1852 10.8163 74.751 10.3908C74.7336 10.3734 74.6989 10.3691 74.6729 10.3604C74.4905 10.178 74.3168 9.99131 74.1258 9.82197C73.6568 9.41816 73.1836 9.02304 72.7103 8.62357C72.6669 8.58884 72.6105 8.56278 72.5627 8.53673C72.4411 8.43252 72.3282 8.31963 72.1979 8.21976C71.7681 7.89411 71.3295 7.56846 70.8953 7.24716C70.8432 7.20808 70.7824 7.18203 70.726 7.15163C70.574 7.03874 70.4308 6.91716 70.2745 6.81296C69.8707 6.53941 69.4582 6.2702 69.05 6.00534C68.9936 5.96626 68.9154 5.95323 68.8503 5.93152C68.7808 5.87074 68.7157 5.79692 68.6376 5.74916C68.1122 5.44088 67.5825 5.13694 67.0527 4.833C66.3189 4.45958 65.5895 4.08617 64.8557 3.71276C64.8297 3.69539 64.808 3.67802 64.7776 3.66934C64.5387 3.56947 64.2956 3.47395 64.0611 3.37408C63.7268 3.2308 63.3968 3.08317 63.0668 2.93554C62.854 2.85304 62.6413 2.77055 62.4286 2.68805C62.3157 2.64463 62.1985 2.60989 62.0856 2.56647C61.6644 2.41016 61.2432 2.25385 60.8221 2.09753C60.1056 1.87609 59.3892 1.65465 58.6728 1.4332C58.6597 1.4332 58.6424 1.42886 58.6293 1.42452C58.5859 1.41149 58.5382 1.39847 58.4948 1.38544C58.3862 1.35071 58.2777 1.31597 58.1648 1.28992C57.6655 1.16834 57.1704 1.04677 56.6668 0.933875C56.4888 0.894797 56.3064 0.877427 56.124 0.847033C55.9373 0.812297 55.742 0.803613 55.564 0.738483C55.2036 0.612565 54.8345 0.57783 54.4611 0.530068C54.3699 0.517042 54.2831 0.504017 54.1919 0.486649C54.0877 0.473623 53.9835 0.456252 53.8836 0.443226C53.7794 0.4302 53.6752 0.412833 53.571 0.399807C53.6578 0.417175 53.749 0.438884 53.8359 0.456252C53.8359 0.49533 53.8402 0.53441 53.8402 0.573488C53.8402 0.53441 53.8402 0.49533 53.8359 0.456252C53.749 0.438884 53.6578 0.417175 53.571 0.399807C53.4537 0.382439 53.3365 0.369413 53.215 0.356387C53.0977 0.343361 52.9762 0.325994 52.8589 0.312968H52.8546C52.4508 0.269548 52.047 0.221784 51.6432 0.178363C51.4217 0.156653 51.2003 0.147971 50.9788 0.126261C50.9267 0.126261 50.8616 0.117576 50.9311 0.0437622H45.9552C46.0117 0.0958663 45.9682 0.117576 45.9205 0.121918C45.7859 0.134945 45.6513 0.147972 45.5124 0.160998C45.6209 0.174024 45.7294 0.187048 45.8337 0.195732C45.7294 0.182706 45.6209 0.169682 45.5124 0.160998C45.4385 0.169682 45.3604 0.174022 45.2866 0.182706C45.1693 0.19139 45.0521 0.200073 44.9349 0.208757C44.6179 0.234809 44.3009 0.260863 43.9883 0.295599C43.7321 0.325994 43.476 0.365072 43.2241 0.40415C43.2111 0.40415 43.1938 0.40415 43.1807 0.40415C43.0939 0.417176 43.0114 0.425861 42.9246 0.438887C42.7422 0.460597 42.5598 0.469278 42.3818 0.504014C41.5351 0.660326 40.6928 0.816639 39.8461 0.985977C39.4901 1.05545 39.1427 1.15966 38.791 1.25084C38.7346 1.26821 38.6738 1.28123 38.6173 1.29426C38.2352 1.39847 37.8488 1.49399 37.4667 1.60255C37.0542 1.72412 36.6461 1.85438 36.238 1.98464C35.8472 2.1149 35.452 2.24082 35.0656 2.3841C34.4534 2.61423 33.8412 2.8487 33.2377 3.10488C32.7253 3.32198 32.2216 3.56513 31.7136 3.7996C31.5226 3.88644 31.3316 3.96894 31.1492 4.06446C30.7671 4.25985 30.3937 4.45958 30.0159 4.65932C29.8596 4.74616 29.699 4.82866 29.5427 4.9155C29.1953 5.11089 28.8436 5.30194 28.5049 5.50601C28.0794 5.76219 27.6626 6.03573 27.2415 6.30494C27.2154 6.32231 27.1937 6.33533 27.1676 6.3527H27.1546V6.36139C27.1546 6.36139 27.1199 6.3831 27.1025 6.39178C27.0591 6.41349 27.007 6.4352 26.9679 6.46125C26.4729 6.80861 25.9693 7.14729 25.483 7.50333C25.0184 7.84635 24.5668 8.20674 24.1109 8.56278C24.0544 8.59752 23.998 8.62791 23.9459 8.67133C23.4379 9.10554 22.9255 9.53539 22.4306 9.97828C22.0007 10.3647 21.5882 10.7729 21.1714 11.1723C21.154 11.1723 21.1454 11.181 21.1497 11.1984H21.1367V11.2114C21.1193 11.2114 21.1106 11.2158 21.1106 11.2331C21.0846 11.2592 21.0585 11.2809 21.0368 11.3069C20.9977 11.3417 20.9586 11.3764 20.9196 11.4111C19.6821 12.653 18.5271 13.9686 17.4764 15.3667C17.0161 15.9789 16.5863 16.6172 16.1391 17.2338C15.935 17.516 16.0522 17.8764 16.3909 17.9806C16.7035 18.0761 17.0118 18.1934 17.3244 18.2889C17.611 18.3801 17.8368 18.3019 18.0148 18.0674C18.0539 18.0153 18.0929 17.9589 18.1277 17.9024C18.8788 16.8126 19.6908 15.7618 20.5592 14.7632C20.8154 14.4679 21.0716 14.177 21.3277 13.8817C21.3668 13.847 21.4015 13.8123 21.4406 13.7775C21.966 13.2435 22.4913 12.7094 23.0211 12.1797C23.312 11.8931 23.6159 11.6196 23.9112 11.3417C23.9372 11.3243 23.9633 11.3113 23.985 11.2939C24.7492 10.6687 25.5133 10.0391 26.2775 9.41816C26.4425 9.28356 26.6162 9.1533 26.7855 9.02304C26.994 8.87975 27.198 8.73646 27.4065 8.59752C27.8276 8.31095 28.2531 8.02437 28.6743 7.7378C28.7394 7.70307 28.8046 7.66833 28.8697 7.63359C29.3864 7.32531 29.9031 7.01269 30.4241 6.70874C30.8018 6.4873 31.1926 6.28757 31.5747 6.07481C31.6225 6.05744 31.6702 6.04008 31.718 6.01402C32.3823 5.7014 33.0423 5.38009 33.7153 5.07615C34.1929 4.85905 34.6835 4.668 35.1698 4.46393C35.5041 4.34669 35.8385 4.22512 36.1728 4.11223C36.6591 3.94723 37.1454 3.78223 37.6317 3.61724C37.6751 3.60855 37.7186 3.59987 37.762 3.59118C38.5175 3.39145 39.2686 3.17001 40.0285 2.99633C40.9446 2.79225 41.8651 2.62726 42.7856 2.44924C42.816 2.44924 42.8464 2.44055 42.8811 2.43621C42.9202 2.42753 42.9636 2.41884 43.0027 2.41016C43.6453 2.332 44.2923 2.25819 44.9349 2.18003C45.1259 2.167 45.3213 2.15398 45.5124 2.14095C46.1115 2.10622 46.7151 2.07148 47.3143 2.03675C47.7181 2.03675 48.1175 2.02806 48.5213 2.0324C49.572 2.04109 50.6228 2.07582 51.6692 2.18003C52.1121 2.22345 52.5593 2.26687 53.0022 2.31029C53.3235 2.35805 53.6448 2.40582 53.9661 2.45358C54.2744 2.497 54.5783 2.54476 54.8866 2.58818C54.9126 2.59686 54.9387 2.61423 54.9691 2.61857C55.4294 2.70976 55.8896 2.80094 56.3455 2.89646C56.6928 2.97028 57.0402 3.04843 57.3919 3.12659C57.5178 3.16567 57.6437 3.20474 57.7697 3.23948C58.2733 3.37843 58.777 3.52171 59.2806 3.66066C59.3197 3.67802 59.3588 3.69539 59.4022 3.71276C59.8581 3.86473 60.314 4.0167 60.77 4.17301C61.0478 4.26854 61.3257 4.3684 61.6036 4.46827C61.9596 4.6159 62.3157 4.76787 62.6674 4.9155C62.9539 5.03707 63.2405 5.15431 63.5271 5.27588C64.1827 5.60153 64.8427 5.92284 65.4983 6.24849C65.8283 6.4352 66.1626 6.61756 66.4926 6.80427C66.6793 6.90848 66.866 7.01269 67.0571 7.11689C67.361 7.30794 67.6606 7.49465 67.9645 7.69004C68.3206 7.91582 68.6809 8.14595 69.037 8.37608C69.2063 8.49765 69.3757 8.61923 69.5407 8.7408C69.9835 9.06211 70.4308 9.38777 70.8737 9.70907C71.1255 9.91315 71.3773 10.1172 71.6292 10.3256C72.0547 10.6817 72.4758 11.0377 72.9013 11.3981C73.0142 11.5067 73.1271 11.6109 73.24 11.7194C73.6351 12.0928 74.0259 12.4619 74.421 12.831C74.4471 12.8657 74.4775 12.9004 74.5035 12.9308C75.1896 13.6864 75.8843 14.4332 76.5616 15.1974C76.935 15.6229 77.278 16.0745 77.634 16.513C77.7469 16.6693 77.8555 16.8256 77.9684 16.9819C78.3071 17.4596 78.6501 17.9372 78.9887 18.4105L78.954 18.4061Z" fill="#00FFFF"/>
</g>
</svg>
