<svg width="92" height="50" viewBox="0 0 92 50" fill="none" xmlns="http://www.w3.org/2000/svg">
<g id="Group">
<path id="Vector" d="M30.4284 32.1502C30.2721 31.716 30.068 31.3035 29.8639 30.8867C29.6902 30.5307 29.5123 30.179 29.3038 29.8446C28.6352 28.7722 27.8276 27.8082 26.9375 26.9138C26.386 26.3623 25.8042 25.8326 25.1963 25.3463C24.4235 24.7254 23.6289 24.1305 22.8126 23.5748C21.8704 22.9321 20.8631 22.3937 19.8514 21.8684C18.7442 21.2952 17.598 20.8176 16.43 20.3747C15.2794 19.9405 14.1113 19.5628 12.9173 19.2545C11.7493 18.9505 10.5683 18.7074 9.36562 18.5988C8.77946 18.5424 8.19327 18.4859 7.60711 18.4729C6.96016 18.4599 6.30888 18.4686 5.66193 18.5207C5.00195 18.5771 4.35065 18.6857 3.69501 18.7942C3.06543 18.9028 2.43589 19.0374 1.8367 19.2632C1.45461 19.4064 1.10722 19.6018 0.820649 19.8971C0.486319 20.2358 0.251884 20.6396 0.0912321 21.0868C0.0782063 21.1259 0.0304089 21.1563 1.52588e-05 21.191V21.6817C1.52588e-05 21.6817 0.0564669 21.6903 0.0608088 21.699C0.169357 21.9552 0.390822 22.0464 0.629629 22.1245C1.08553 22.2678 1.55445 22.2852 2.02338 22.2505C2.17534 22.2374 2.33166 22.1853 2.46626 22.1159C2.63994 22.029 2.67035 21.877 2.58785 21.699C2.49667 21.5036 2.32731 21.4124 2.13192 21.3734C1.92351 21.3256 1.70643 21.3126 1.49367 21.2735C1.3721 21.2518 1.25923 21.2171 1.13766 21.191C1.13766 21.1693 1.13765 21.1519 1.13331 21.1302C1.25488 21.0781 1.3721 21.0217 1.49367 20.9826C2.43153 20.6787 3.40414 20.6048 4.38108 20.5744C5.16263 20.5527 5.94848 20.5918 6.73003 20.6092C6.99923 20.6135 7.26847 20.6309 7.53333 20.6613C8.0891 20.7264 8.6405 20.7872 9.19193 20.8784C9.8823 20.9913 10.5683 21.1172 11.25 21.2648C12.4788 21.5384 13.6858 21.8944 14.8712 22.3243C15.8264 22.6716 16.7686 23.0364 17.6805 23.4792C18.3317 23.7962 18.9787 24.1175 19.6083 24.4692C20.2335 24.8209 20.8414 25.1943 21.4405 25.5895C22.2091 26.0975 22.9472 26.6576 23.6463 27.2611C24.3453 27.8603 24.9923 28.503 25.5784 29.2107C26.3122 30.1008 26.9201 31.0691 27.3717 32.1329C27.6756 32.845 27.8623 33.5831 27.8536 34.3603C27.8536 34.6122 27.8102 34.864 27.7755 35.1115C27.6278 36.0624 27.224 36.896 26.5684 37.6038C25.8129 38.4158 24.8664 38.9498 23.8503 39.3667C22.9733 39.7314 22.0571 39.9528 21.1149 40.0961C20.4289 40.2047 19.7385 40.2698 19.0482 40.2958C18.1711 40.3262 17.2897 40.3262 16.4126 40.2307C15.8785 40.1699 15.3488 40.1048 14.8234 39.9962C14.7076 39.9731 14.6469 39.9022 14.6411 39.7835C14.6281 39.358 14.6107 38.9368 14.602 38.5113C14.5846 37.8122 14.5716 37.1132 14.5586 36.4141C14.5455 35.715 14.5282 35.016 14.5152 34.3169C14.5065 33.9391 14.5065 33.557 14.5065 33.1793C14.5065 33.1142 14.5152 33.0534 14.5239 32.9578C14.9146 32.9796 15.288 33.0056 15.6571 33.0143C16.2172 33.0317 16.7686 33.1142 17.32 33.1967C18.1667 33.3226 19.0091 33.4789 19.834 33.696C20.2856 33.8176 20.7459 33.9348 21.1627 34.1519C21.6012 34.382 21.6577 34.7207 21.2973 35.0594C21.1323 35.2157 20.9282 35.3286 20.7328 35.4545C20.6025 35.537 20.4549 35.6021 20.3247 35.6846C20.1597 35.7888 20.1553 35.9495 20.3116 36.0624C20.3637 36.1015 20.4289 36.1319 20.4897 36.1492C20.6373 36.1926 20.7893 36.2448 20.9413 36.2708C21.2278 36.3229 21.5144 36.362 21.8053 36.3099C22.4088 36.197 22.8821 35.867 23.2425 35.3894C23.5681 34.9552 23.7809 34.4732 23.694 33.8957C23.6029 33.3009 23.3163 32.8189 22.8995 32.4064C22.2829 31.7985 21.5231 31.4425 20.7068 31.1993C20.2161 31.0517 19.7168 30.9345 19.2175 30.8129C18.5314 30.6479 17.8324 30.5437 17.129 30.4742C16.8989 30.4525 16.6688 30.4178 16.4387 30.4134C15.8872 30.4047 15.3358 30.4091 14.7844 30.4048C14.7323 30.4048 14.6802 30.4178 14.6281 30.4221C14.5195 30.4308 14.4544 30.3874 14.4631 30.2701C14.4631 30.2267 14.4631 30.179 14.4631 30.1355C14.4327 29.5884 14.411 29.037 14.3762 28.4899C14.3415 27.9385 14.2416 27.4001 14.0984 26.8703C13.9724 26.4101 13.8204 25.9585 13.5295 25.5721C13.3819 25.3767 13.2169 25.1943 12.9737 25.1032C12.8261 25.0467 12.7089 25.0901 12.6134 25.1987C12.5656 25.2551 12.5265 25.3203 12.5005 25.3897C12.3138 25.8934 12.2139 26.4188 12.1401 26.9485C12.0837 27.374 12.0359 27.8039 11.9925 28.2294C11.9448 28.7374 11.9057 29.2498 11.8709 29.7578C11.8579 29.9662 11.8666 30.1746 11.8622 30.383C11.8622 30.6653 11.8449 30.6826 11.5757 30.7347C11.5626 30.7347 11.5453 30.7347 11.5322 30.7391C11.1458 30.8086 10.7507 30.8607 10.3686 30.9518C9.22231 31.221 8.09342 31.5641 7.02096 32.0504C6.37401 32.3413 5.76181 32.693 5.24946 33.2053C4.65462 33.8002 4.46793 34.6295 4.88041 35.4371C5.14961 35.9669 5.5013 36.4358 5.90076 36.87C6.56942 37.6038 7.32925 38.2421 8.11948 38.8413C8.9488 39.4752 9.84323 40.018 10.7768 40.4912C11.0546 40.6345 11.3368 40.7735 11.6191 40.9081C11.7059 40.9515 11.7667 40.9993 11.7797 41.1035C11.8058 41.39 11.8275 41.6809 11.8753 41.9675C11.923 42.2541 11.9708 42.5407 12.062 42.8142C12.2096 43.2527 12.5092 43.5567 12.9781 43.6392C13.3037 43.6956 13.6337 43.6826 13.955 43.5871C14.2025 43.5133 14.3806 43.3483 14.4674 43.0964C14.5499 42.8576 14.6107 42.6101 14.602 42.354C14.602 42.2715 14.6107 42.1846 14.615 42.1065C14.6628 42.1021 14.6758 42.0978 14.6888 42.0978C15.5182 42.2801 16.3431 42.4755 17.1898 42.545C17.6848 42.5841 18.1841 42.6405 18.6791 42.6622C19.3564 42.6883 20.0381 42.6709 20.7111 42.5841C21.2582 42.5146 21.8053 42.4538 22.3437 42.3583C23.8851 42.0804 25.3613 41.5898 26.7291 40.8212C27.3803 40.4565 28.0012 40.0397 28.5136 39.4882C28.7784 39.206 29.0303 38.9107 29.2647 38.6025C29.7554 37.9685 30.1331 37.2695 30.4154 36.5226C30.6064 36.0103 30.715 35.4806 30.7627 34.9378C30.7888 34.6512 30.8105 34.3603 30.8018 34.0694C30.7975 33.8176 30.7671 33.5657 30.715 33.3182C30.6325 32.9188 30.5456 32.515 30.411 32.1329L30.4284 32.1502ZM11.758 39.1496C11.6017 39.0975 11.4454 39.0497 11.2891 38.9932C9.78242 38.4505 8.42777 37.6299 7.15124 36.679C6.59981 36.2708 6.10047 35.7975 5.66627 35.2635C5.55338 35.1245 5.4709 34.9682 5.46222 34.7772C5.45353 34.5861 5.52734 34.4472 5.67931 34.3386C5.97022 34.1389 6.2915 33.9956 6.63017 33.8957C7.47251 33.6482 8.33223 33.4615 9.20062 33.3443C9.72166 33.2748 10.247 33.2227 10.7724 33.1619C11.0329 33.1315 11.2891 33.1098 11.5496 33.0838C11.6061 33.0794 11.6669 33.0838 11.7624 33.0838V39.1452L11.758 39.1496Z" fill="#002B4F"/>
<path id="Vector_2" d="M74.6815 31.703C74.421 31.2341 74.0563 30.878 73.5135 30.7738C73.0967 30.6913 72.6842 30.7608 72.2891 30.9215C71.6726 31.1733 71.1428 31.5597 70.6565 31.9983C70.0487 32.5454 69.4799 33.1402 68.9588 33.7742C68.2467 34.6469 67.5781 35.55 66.9702 36.4923C66.9485 36.527 66.9268 36.5704 66.9051 36.6052C66.8877 36.5965 66.8704 36.5834 66.8486 36.5748C66.8356 36.4966 66.8095 36.4185 66.8139 36.3403C66.8182 36.1492 66.8313 35.9539 66.853 35.7628C66.9268 35.1028 67.1439 34.4863 67.4522 33.9044C67.8647 33.1272 68.2988 32.3674 68.7374 31.6032C68.9024 31.3166 69.024 31.0126 69.0717 30.687C69.1151 30.4178 69.1802 30.1486 69.1021 29.8707C69.0456 29.6753 68.9631 29.6189 68.7764 29.6927C68.6505 29.7448 68.5203 29.8186 68.4204 29.9141C68.1295 30.1877 67.843 30.4699 67.5651 30.7652C66.9051 31.4599 66.3623 32.2458 65.9238 33.0968C65.4418 34.0347 65.0858 35.0116 64.999 36.0798C64.9469 36.718 64.9903 37.3433 65.1813 37.9512C65.2682 38.2334 65.3984 38.5026 65.5287 38.7718C65.5764 38.876 65.5895 38.9585 65.533 39.0627C65.4418 39.2321 65.3637 39.4101 65.2899 39.5881C64.9729 40.374 64.6473 41.1556 64.3477 41.9502C64.0437 42.7578 63.7962 43.5828 63.6226 44.4295C63.5183 44.9375 63.4228 45.4498 63.3707 45.9665C63.3317 46.366 63.3317 46.7741 63.3707 47.1693C63.4315 47.7728 63.666 48.3156 64.022 48.8105C64.3173 49.223 64.6559 49.5791 65.1335 49.7831C65.1596 49.7962 65.1726 49.8353 65.19 49.8656H65.5504C65.5504 49.8656 65.5547 49.8135 65.5677 49.8049C65.7718 49.6659 65.8413 49.4662 65.8674 49.2361C65.9195 48.8236 65.9716 48.4111 66.0497 48.0029C66.1974 47.2431 66.345 46.4876 66.5186 45.7364C66.8703 44.2254 67.3697 42.7665 67.9428 41.3249C68.0297 41.1122 68.1165 40.9037 68.2077 40.691C68.3162 40.6997 68.3987 40.7084 68.4812 40.717C68.694 40.7388 68.9111 40.7865 69.1238 40.7778C69.5233 40.7648 69.9271 40.717 70.3135 40.5998C71.1689 40.3349 71.907 39.866 72.5627 39.2668C73.0707 38.8022 73.5135 38.2812 73.9216 37.7297C74.6337 36.7658 75.0375 35.6803 75.12 34.4906C75.1547 34.0043 75.12 33.5093 75.081 33.023C75.0375 32.5541 74.8986 32.1068 74.6685 31.69L74.6815 31.703ZM73.2443 35.5674C72.9274 36.1058 72.5192 36.5704 72.0546 36.9786C71.6986 37.2912 71.2731 37.504 70.8345 37.6689C70.4698 37.8079 70.0834 37.9078 69.7056 38.0163C69.6231 38.0424 69.5319 38.0337 69.3843 38.0467C69.4842 37.8513 69.5536 37.695 69.6405 37.5474C70.2223 36.5096 70.8953 35.524 71.6465 34.5991C72.0503 34.1042 72.4801 33.6309 72.91 33.1533C72.9968 33.0534 73.1097 32.9709 73.2226 32.9058C73.4701 32.7625 73.6741 32.845 73.7653 33.1142C73.787 33.175 73.8001 33.2444 73.8044 33.3096C73.8696 34.1215 73.6568 34.8684 73.2487 35.5674H73.2443Z" fill="#002B4F"/>
<path id="Vector_3" d="M91.7063 33.162C91.5369 33.0144 91.3329 32.9927 91.1201 32.9927C89.4094 32.9927 87.6986 32.9927 85.9923 32.9927C85.9054 32.9927 85.8186 32.984 85.7318 32.984C85.684 32.4369 85.6406 31.9202 85.5885 31.4035C85.5451 30.9389 85.5016 30.4743 85.4408 30.0097C85.38 29.519 85.3019 29.0241 85.2237 28.5334C85.1586 28.1383 85.0891 27.7432 85.011 27.3524C84.9589 27.0832 84.846 26.9963 84.5811 26.9963C84.1643 26.9963 83.7431 26.9963 83.3263 26.9963C83.0397 26.9963 82.8921 27.17 82.9399 27.4609C83.0658 28.2425 83.2091 29.0241 83.322 29.81C83.4088 30.3961 83.4609 30.9866 83.5304 31.5772C83.5564 31.8203 83.5868 32.0635 83.6042 32.3066C83.6172 32.5281 83.6042 32.7452 83.6042 32.9927H83.3306C81.7024 32.9927 80.0742 32.9927 78.446 32.9927C78.3287 32.9927 78.2072 33.0057 78.0943 33.0317C77.9293 33.0708 77.7903 33.2358 77.7903 33.4008C77.786 33.8263 77.7816 34.2475 77.7903 34.673C77.7947 34.9075 77.9727 35.0681 78.2115 35.0812C78.2723 35.0812 78.3331 35.0812 78.3895 35.0812C80.0698 35.0812 81.7502 35.0812 83.4305 35.0812H83.7127C83.7127 35.194 83.7127 35.2722 83.7127 35.3547C83.7127 36.5357 83.7345 37.7211 83.6216 38.8978C83.5868 39.2451 83.5651 39.5925 83.5347 39.9399C83.5173 40.1266 83.4913 40.3089 83.487 40.4956C83.4783 40.7866 83.6563 40.9733 83.9516 40.9776C84.325 40.9819 84.6984 40.9819 85.0718 40.9776C85.3497 40.9776 85.5016 40.856 85.5624 40.5825C85.5885 40.4609 85.5841 40.3306 85.5971 40.2047C85.6536 39.5317 85.7274 38.8587 85.7578 38.1857C85.7969 37.3781 85.7969 36.5661 85.8099 35.7542C85.8099 35.5892 85.8099 35.4285 85.8099 35.2635C85.8099 35.2071 85.8229 35.1506 85.8316 35.0812H86.1138C87.7508 35.0812 89.3833 35.0812 91.0202 35.0812C91.2807 35.0812 91.5413 35.0942 91.7497 34.8988C91.7497 34.8988 91.7627 34.8988 91.7714 34.8988V33.1576C91.7497 33.1576 91.7193 33.162 91.7063 33.1533V33.162Z" fill="#002B4F"/>
<path id="Vector_4" d="M45.5688 30.6176C45.5688 30.6176 45.5427 30.6045 45.5297 30.5959C44.6613 30.1617 43.7191 30.0184 42.7639 29.9576C42.321 29.9315 41.8737 29.9011 41.4265 29.9315C40.8838 29.9663 40.341 29.9967 39.8026 30.0705C38.9864 30.1834 38.1918 30.357 37.4233 30.6523C36.7893 30.8955 36.2032 31.2124 35.7386 31.7204C35.2393 32.2719 35.0004 32.9101 35.0743 33.6613C35.1264 34.1867 35.426 34.521 35.8905 34.7121C36.1207 34.8076 36.3769 34.8684 36.6244 34.8988C37.3191 34.9856 38.0137 35.0508 38.7085 35.1246C39.338 35.1897 39.9676 35.2461 40.5972 35.3026C41.2051 35.359 41.8043 35.4719 42.3948 35.6239C42.8159 35.7324 43.2285 35.8714 43.5802 36.1363C43.9449 36.4098 43.9535 36.8006 43.6018 37.1002C43.5671 37.1306 43.528 37.1523 43.4933 37.1783C42.6119 37.7949 41.6176 38.1075 40.5625 38.2552C40.2108 38.3073 39.8504 38.3203 39.4944 38.355C38.8214 38.4245 38.1527 38.4071 37.5014 38.2117C37.2236 38.1292 36.937 38.0511 36.7199 37.8427C36.594 37.7254 36.4767 37.5908 36.5158 37.3954C36.5549 37.2044 36.6547 37.0481 36.8284 36.9526C37.0716 36.818 37.3321 36.7572 37.6056 36.7876C37.8271 36.8136 38.0485 36.8614 38.2569 36.9352C38.7259 37.1089 39.1861 37.2999 39.6463 37.491C39.9763 37.6256 40.3193 37.7124 40.6667 37.6994C41.1052 37.682 41.5351 37.5821 41.9519 37.4302C42.1907 37.3433 42.4252 37.2478 42.6075 37.0611C42.8203 36.844 42.803 36.6182 42.5468 36.4489C42.4903 36.4098 42.4295 36.3794 42.3687 36.3534C42.0952 36.2405 41.8216 36.1189 41.5394 36.019C41.0531 35.8453 40.5495 35.7498 40.0415 35.6673C39.6985 35.6109 39.3511 35.5501 39.0037 35.5371C38.5739 35.524 38.1397 35.5371 37.7098 35.5805C37.1932 35.6369 36.7068 35.7976 36.277 36.1102C35.6778 36.5488 35.4346 37.2565 35.6648 37.9642C35.7776 38.3116 35.9904 38.5982 36.2379 38.8587C36.6547 39.3016 37.1497 39.6489 37.6968 39.9138C38.7172 40.4088 39.7896 40.6823 41.0271 40.6693C41.4179 40.6954 41.8998 40.6259 42.3731 40.526C43.0635 40.3827 43.7147 40.1439 44.3009 39.7271C45.0955 39.1626 45.5514 38.4028 45.6382 37.4345C45.6947 36.818 45.6078 36.2144 45.343 35.6499C45.191 35.3286 44.9999 35.029 44.722 34.7859C44.34 34.4559 43.8884 34.2735 43.4108 34.1389C42.4947 33.8828 41.5524 33.8003 40.6146 33.6917C40.3106 33.657 40.0067 33.6222 39.7071 33.5875C39.2729 33.5354 38.8344 33.4833 38.4002 33.4268C38.0746 33.3834 37.7533 33.34 37.4276 33.2879C37.3321 33.2705 37.2409 33.2358 37.1541 33.1924C37.0064 33.1099 37.0021 32.9883 37.1541 32.9058C37.2713 32.8407 37.3972 32.7973 37.5275 32.7625C38.1527 32.5975 38.791 32.4846 39.4379 32.4412C40.0458 32.4021 40.6537 32.3544 41.2659 32.3153C41.5872 32.2936 41.9041 32.2892 42.2254 32.2719C42.829 32.2415 43.4325 32.2198 44.0317 32.1763C44.3486 32.1503 44.67 32.1069 44.9783 32.0331C45.3386 31.9462 45.6339 31.7465 45.8075 31.4078C46.0116 31.0083 45.9508 30.8173 45.5557 30.6176H45.5688Z" fill="#002B4F"/>
<path id="Vector_5" d="M63.844 38.3767C63.7832 38.0771 63.6399 37.8209 63.3924 37.6299C63.1884 37.4736 62.9713 37.3824 62.7064 37.4171C62.4416 37.4519 62.1724 37.4649 61.9075 37.5126C61.0131 37.6646 60.123 37.8296 59.2285 37.9903C59.0896 38.0163 58.955 38.0554 58.8117 38.0771C58.6554 38.1032 58.586 38.0293 58.612 37.873C58.6163 37.8426 58.6293 37.8166 58.638 37.7905C58.7683 37.3563 58.8942 36.9221 59.0245 36.4879C59.0635 36.3533 59.107 36.2231 59.1504 36.0885C59.2676 36.0711 59.3718 36.045 59.4717 36.0407C60.2011 36.006 60.9306 35.9756 61.66 35.9452C61.9639 35.9321 62.2723 35.9148 62.5762 35.8931C62.6717 35.8844 62.7716 35.8714 62.8627 35.841C63.0494 35.7758 63.1884 35.6543 63.2145 35.4458C63.2362 35.2635 63.2535 35.0768 63.2535 34.8901C63.2535 34.7338 63.2405 34.5774 63.2188 34.4255C63.1884 34.2344 63.0712 34.1172 62.8714 34.1085C62.3678 34.0781 61.8598 34.0521 61.3561 34.0347C61.1477 34.026 60.9393 34.0564 60.7309 34.0694C60.5138 34.0824 60.301 34.0955 60.0839 34.1085C60.0405 34.1085 60.0014 34.0955 59.958 34.0911C59.958 34.0564 59.945 34.0347 59.9493 34.013C60.0665 33.6352 60.1881 33.2618 60.3053 32.8841C60.327 32.8059 60.3792 32.7798 60.453 32.7755C60.9566 32.7451 61.4647 32.7147 61.9683 32.6843C62.2375 32.667 62.5024 32.6583 62.7716 32.6322C63.2839 32.5801 63.7919 32.5237 64.2999 32.4585C64.5431 32.4281 64.7862 32.3804 65.0207 32.3153C65.2682 32.2458 65.3507 32.1242 65.3159 31.8637C65.2986 31.7291 65.2422 31.5945 65.177 31.4686C64.9556 31.043 64.6951 30.6436 64.3043 30.3527C64.0655 30.179 63.8093 30.0487 63.5053 30.0487C62.7455 30.0444 61.9857 30.04 61.2258 30.1312C60.6657 30.1964 60.1012 30.2485 59.5411 30.3136C58.7205 30.4048 57.9086 30.5524 57.101 30.7261C56.9273 30.7652 56.7536 30.8216 56.593 30.8954C56.3889 30.9909 56.3238 31.1559 56.415 31.3557C56.7015 31.9983 57.1444 32.4542 57.8825 32.5541C57.9954 32.5714 58.1083 32.5931 58.2429 32.6149C57.978 33.1619 57.7262 33.6917 57.4744 34.2084C57.2269 34.2692 57.0098 34.3169 56.797 34.382C56.5365 34.4559 56.441 34.6426 56.441 34.9074C56.441 35.2808 56.5322 35.6282 56.6668 35.9669C56.7015 36.0581 56.7058 36.1275 56.6668 36.2187C56.5495 36.54 56.428 36.8613 56.3368 37.1913C56.1674 37.8253 56.0328 38.4592 56.124 39.1235C56.1718 39.4709 56.263 39.7922 56.454 40.0831C56.6537 40.3827 56.8839 40.6519 57.1661 40.8777C57.5352 41.173 57.952 41.3423 58.4383 41.351C59.0201 41.364 59.5803 41.2468 60.1273 41.0601C61.0782 40.7388 61.9683 40.2872 62.7933 39.7097C63.0668 39.5186 63.323 39.2972 63.5705 39.0758C63.7702 38.8934 63.8918 38.6589 63.8353 38.3767H63.844Z" fill="#002B4F"/>
<path id="Vector_6" d="M53.953 29.9576C53.5883 29.4539 53.1585 29.0111 52.6375 28.6637C52.568 28.6203 52.4985 28.5725 52.4247 28.5421C52.1295 28.4292 51.8819 28.5595 51.8515 28.8678C51.8298 29.1022 51.8299 29.3497 51.882 29.5755C52.0122 30.1226 52.1945 30.661 52.3291 31.2081C52.5853 32.2545 52.8328 33.301 53.063 34.3517C53.1845 34.9162 53.2713 35.4893 53.3538 36.0625C53.3799 36.2275 53.3539 36.4055 53.3235 36.5705C53.2931 36.7398 53.1889 36.7702 53.0543 36.666C53.0065 36.6313 52.9674 36.5835 52.9327 36.5358C52.8545 36.4272 52.7721 36.323 52.6983 36.2058C52.2814 35.5371 51.8732 34.8597 51.4521 34.1911C50.905 33.314 50.3318 32.4499 49.6632 31.6553C49.4548 31.4078 49.2247 31.169 48.9772 30.9563C48.6298 30.661 48.2694 30.6914 47.9351 31.004C47.6876 31.2298 47.5226 31.5164 47.4141 31.829C47.2491 32.3066 47.0841 32.7843 46.9669 33.2749C46.7671 34.0825 46.6239 34.9032 46.5544 35.7325C46.5023 36.3404 46.4458 36.9439 46.4285 37.5518C46.4154 38.0337 46.4328 38.5201 46.4762 38.9977C46.5023 39.2886 46.5718 39.5838 46.6629 39.8661C46.7932 40.2655 47.1666 40.6216 47.731 40.5825C48.1001 40.5565 48.4127 40.335 48.5386 39.9833C48.6689 39.6229 48.7123 39.2452 48.747 38.8718C48.7948 38.3464 48.8165 37.821 48.8383 37.2913C48.86 36.7398 48.8643 36.1927 48.8904 35.6413C48.9077 35.3157 48.9468 34.99 48.9859 34.6687C48.9946 34.5949 49.0423 34.5254 49.0901 34.4125C49.1726 34.5037 49.2334 34.5601 49.2725 34.6253C49.4374 34.8988 49.6068 35.1724 49.7501 35.4589C50.1625 36.2752 50.588 37.0872 51.0743 37.8644C51.4521 38.4636 51.8385 39.0498 52.3509 39.5535C52.8328 40.0224 53.6187 40.17 54.2526 39.7228C54.6695 39.4319 54.9517 39.0411 55.1254 38.5635C55.3946 37.8166 55.5162 37.0351 55.5552 36.2492C55.6117 35.2375 55.5552 34.2302 55.3425 33.2315C55.0863 32.0461 54.6738 30.9346 53.953 29.9489V29.9576Z" fill="#002B4F"/>
<path id="Vector_7" d="M32.7426 28.4899C33.2202 28.5811 33.6935 28.542 34.1581 28.4552C35.0786 28.2815 35.9166 27.9081 36.7112 27.4174C37.4276 26.9746 38.0572 26.4361 38.6477 25.8413C39.0037 25.4809 39.299 25.0814 39.4987 24.6212C39.7202 24.1132 39.8287 23.5878 39.6637 23.0363C39.4032 22.1766 38.7736 21.7337 37.9313 21.547C37.7967 21.5166 37.6838 21.4776 37.597 21.3603C37.4146 21.1215 37.1714 20.9478 36.9065 20.8002C36.4376 20.5354 35.9296 20.4442 35.3956 20.4485C35.0829 20.4789 34.7703 20.4963 34.4664 20.5484C33.7022 20.683 32.9901 20.9565 32.3171 21.3386C31.4227 21.8423 30.6368 22.4762 30.0333 23.3099C29.5296 24.0046 29.2213 24.7601 29.3473 25.6416C29.4037 26.028 29.4992 26.4144 29.7423 26.7184C30.0246 27.0701 30.1418 27.4435 30.1158 27.8907C30.0897 28.2685 30.2634 28.5985 30.5065 28.885C30.8148 29.2411 31.1014 29.1977 31.4053 28.8546C31.4401 28.8156 31.4618 28.7678 31.4878 28.7244C31.5486 28.6158 31.6137 28.5073 31.6745 28.3944C31.718 28.3075 31.7787 28.2685 31.8742 28.3075C32.1565 28.4118 32.4517 28.4378 32.7426 28.4943V28.4899ZM35.1698 23.9221C35.4259 23.7224 35.6995 23.5357 35.9731 23.3577C36.3595 23.1058 36.7806 22.9408 37.2365 22.88C37.9443 22.7889 38.4002 23.362 38.2873 23.9395C38.1918 24.4301 37.9139 24.7949 37.5665 25.1118C36.9587 25.6633 36.2466 26.054 35.4694 26.3102C34.9093 26.4926 34.3318 26.6011 33.737 26.5968C33.4981 26.5968 33.2593 26.5968 33.0205 26.5925C32.9337 26.5925 32.8512 26.5621 32.721 26.536C32.912 26.2711 33.0639 26.054 33.2246 25.8413C33.789 25.1118 34.449 24.4822 35.1741 23.9178L35.1698 23.9221ZM30.9234 25.7371C30.7931 25.5851 30.754 25.4418 30.7367 25.2899C30.7019 24.9381 30.8235 24.6299 31.0102 24.3476C31.3358 23.8483 31.7831 23.4662 32.2868 23.1536C32.5733 22.9756 32.8599 22.8062 33.1986 22.7411C33.3505 22.715 33.5025 22.6933 33.6588 22.6716C32.6211 23.5878 31.6832 24.5647 30.9234 25.7414V25.7371Z" fill="#002B4F"/>
<path id="Vector_8" d="M34.4186 37.6776C34.3882 36.9525 34.3622 36.2231 34.3275 35.498C34.3014 34.9943 34.2797 34.4906 34.2363 33.9869C34.1842 33.366 34.1234 32.7451 34.0496 32.1286C34.0061 31.7508 33.9323 31.3774 33.776 31.03C33.6371 30.7174 33.4243 30.4786 33.0813 30.3831C32.8686 30.3223 32.7339 30.3527 32.621 30.5437C32.5125 30.7304 32.4213 30.9258 32.3605 31.1299C32.1608 31.8073 32.0783 32.5107 32.0002 33.2097C31.935 33.7829 31.9003 34.3647 31.8656 34.9422C31.8395 35.4372 31.8221 35.9365 31.8221 36.4358C31.8221 36.9395 31.8395 37.4475 31.8526 37.9512C31.8656 38.3507 31.8699 38.7545 31.909 39.1539C31.9437 39.4839 32.0002 39.8139 32.087 40.1352C32.1738 40.4609 32.391 40.691 32.7123 40.8213C33.0987 40.9776 33.4938 40.9819 33.8933 40.8603C34.0365 40.8169 34.1364 40.7171 34.2233 40.6042C34.4013 40.374 34.436 40.1005 34.449 39.8269C34.4621 39.5317 34.449 39.2321 34.449 38.9325C34.4577 38.9325 34.462 38.9325 34.4707 38.9325C34.449 38.5157 34.4273 38.1032 34.4099 37.6863L34.4186 37.6776Z" fill="#002B4F"/>
<path id="Vector_9" d="M78.954 18.512C78.9801 18.5641 79.0061 18.6162 79.0408 18.664C79.2666 19.02 79.4924 19.3761 79.7182 19.7321C79.779 19.832 79.8441 19.9275 79.9092 20.0274C80.0916 20.3487 80.2783 20.67 80.4563 20.9956C80.782 21.5948 81.0946 22.2027 81.4159 22.8019C81.4202 22.8323 81.4202 22.8627 81.4333 22.8888C81.6764 23.4228 81.9196 23.9569 82.1671 24.491C82.2669 24.7081 82.4449 24.8123 82.6837 24.8123C83.0658 24.8123 83.4436 24.8123 83.8257 24.8123C84.1947 24.8123 84.3728 24.5344 84.2295 24.1914C84.0471 23.7528 83.8648 23.3143 83.6737 22.8801C83.5478 22.5978 83.4001 22.3243 83.2612 22.0421C83.2438 21.9943 83.2265 21.9422 83.2047 21.8988C82.8357 21.1867 82.471 20.4703 82.0845 19.7669C81.8761 19.3804 81.633 19.0157 81.4072 18.6379C81.3117 18.7248 81.2118 18.8073 81.1206 18.9028C81.2118 18.8073 81.3117 18.7291 81.4072 18.6379C81.3551 18.5598 81.2986 18.4816 81.2509 18.4035C81.0164 18.0344 80.7819 17.6697 80.5475 17.3006C80.2349 16.8534 79.9179 16.4061 79.6053 15.9589C79.3795 15.655 79.1711 15.338 78.9323 15.0514C78.2506 14.2351 77.5602 13.4232 76.8655 12.6199C76.6093 12.3247 76.3184 12.0511 76.0449 11.7689C75.615 11.3434 75.1852 10.9222 74.751 10.4967C74.7336 10.4793 74.6989 10.475 74.6729 10.4663C74.4905 10.2839 74.3168 10.0972 74.1258 9.92786C73.6568 9.52406 73.1836 9.12893 72.7103 8.72947C72.6669 8.69473 72.6105 8.66868 72.5627 8.64263C72.4411 8.53842 72.3282 8.42553 72.1979 8.32566C71.7681 8.00001 71.3295 7.67436 70.8953 7.35305C70.8432 7.31397 70.7824 7.28792 70.726 7.25753C70.574 7.14464 70.4308 7.02306 70.2745 6.91885C69.8707 6.6453 69.4582 6.3761 69.05 6.11124C68.9936 6.07216 68.9154 6.05913 68.8503 6.03742C68.7808 5.97663 68.7157 5.90282 68.6376 5.85506C68.1122 5.54677 67.5825 5.24283 67.0527 4.93889C66.3189 4.56548 65.5895 4.19207 64.8557 3.81865C64.8297 3.80129 64.808 3.78392 64.7776 3.77523C64.5387 3.67537 64.2956 3.57984 64.0611 3.47998C63.7268 3.33669 63.3968 3.18907 63.0668 3.04144C62.854 2.95894 62.6413 2.87644 62.4286 2.79394C62.3157 2.75052 62.1985 2.71578 62.0856 2.67236C61.6644 2.51605 61.2432 2.35974 60.8221 2.20343C60.1056 1.98199 59.3892 1.76054 58.6728 1.5391C58.6597 1.5391 58.6424 1.53476 58.6293 1.53042C58.5859 1.51739 58.5382 1.50437 58.4948 1.49134C58.3862 1.4566 58.2777 1.42187 58.1648 1.39582C57.6655 1.27424 57.1704 1.15266 56.6668 1.03977C56.4888 1.00069 56.3064 0.983323 56.124 0.952929C55.9373 0.918193 55.742 0.909509 55.564 0.844379C55.2036 0.718461 54.8345 0.683726 54.4611 0.635964C54.3699 0.622938 54.2831 0.609913 54.1919 0.592545C54.0877 0.579519 53.9835 0.562148 53.8836 0.549122C53.7794 0.536096 53.6752 0.518729 53.571 0.505703C53.6578 0.523071 53.749 0.54478 53.8359 0.562148C53.8359 0.601226 53.8402 0.640306 53.8402 0.679384C53.8402 0.640306 53.8402 0.601226 53.8359 0.562148C53.749 0.54478 53.6578 0.523071 53.571 0.505703C53.4537 0.488335 53.3365 0.475309 53.215 0.462283C53.0977 0.449257 52.9762 0.43189 52.8589 0.418864H52.8546C52.4508 0.375444 52.047 0.327679 51.6432 0.284259C51.4217 0.262549 51.2003 0.253867 50.9788 0.232157C50.9267 0.232157 50.8616 0.223472 50.9311 0.149658H45.9552C46.0117 0.201762 45.9682 0.223472 45.9205 0.227814C45.7859 0.240841 45.6513 0.253868 45.5124 0.266894C45.6209 0.27992 45.7294 0.292944 45.8337 0.301628C45.7294 0.288602 45.6209 0.275578 45.5124 0.266894C45.4385 0.275578 45.3604 0.279918 45.2866 0.288602C45.1693 0.297286 45.0521 0.305969 44.9349 0.314653C44.6179 0.340705 44.3009 0.366759 43.9883 0.401495C43.7321 0.43189 43.476 0.470968 43.2241 0.510046C43.2111 0.510046 43.1938 0.510046 43.1807 0.510046C43.0939 0.523072 43.0114 0.531757 42.9246 0.544783C42.7422 0.566493 42.5598 0.575174 42.3818 0.60991C41.5351 0.766222 40.6928 0.922535 39.8461 1.09187C39.4901 1.16135 39.1427 1.26555 38.791 1.35674C38.7346 1.3741 38.6738 1.38713 38.6173 1.40016C38.2352 1.50436 37.8488 1.59989 37.4667 1.70844C37.0542 1.83002 36.6461 1.96028 36.238 2.09054C35.8472 2.2208 35.452 2.34671 35.0656 2.49C34.4534 2.72013 33.8412 2.9546 33.2377 3.21078C32.7253 3.42788 32.2216 3.67103 31.7136 3.9055C31.5226 3.99234 31.3316 4.07483 31.1492 4.17036C30.7671 4.36575 30.3937 4.56548 30.0159 4.76521C29.8596 4.85205 29.699 4.93455 29.5427 5.02139C29.1953 5.21678 28.8436 5.40783 28.5049 5.61191C28.0794 5.86808 27.6626 6.14163 27.2415 6.41083C27.2154 6.4282 27.1937 6.44123 27.1676 6.4586H27.1546V6.46728C27.1546 6.46728 27.1199 6.48899 27.1025 6.49768C27.0591 6.51939 27.007 6.54109 26.9679 6.56715C26.4729 6.91451 25.9693 7.25318 25.483 7.60923C25.0184 7.95225 24.5668 8.31264 24.1109 8.66868C24.0544 8.70342 23.998 8.73381 23.9459 8.77723C23.4379 9.21143 22.9255 9.64129 22.4306 10.0842C22.0007 10.4706 21.5882 10.8788 21.1714 11.2782C21.154 11.2782 21.1454 11.2869 21.1497 11.3043H21.1367V11.3173C21.1193 11.3173 21.1106 11.3216 21.1106 11.339C21.0846 11.3651 21.0585 11.3868 21.0368 11.4128C20.9977 11.4476 20.9586 11.4823 20.9196 11.517C19.6821 12.7589 18.5271 14.0745 17.4764 15.4726C17.0161 16.0848 16.5863 16.7231 16.1391 17.3397C15.935 17.6219 16.0522 17.9823 16.3909 18.0865C16.7035 18.182 17.0118 18.2993 17.3244 18.3948C17.611 18.486 17.8368 18.4078 18.0148 18.1733C18.0539 18.1212 18.0929 18.0648 18.1277 18.0083C18.8788 16.9185 19.6908 15.8677 20.5592 14.8691C20.8154 14.5738 21.0716 14.2829 21.3277 13.9876C21.3668 13.9529 21.4015 13.9182 21.4406 13.8834C21.966 13.3494 22.4913 12.8153 23.0211 12.2856C23.312 11.999 23.6159 11.7255 23.9112 11.4476C23.9372 11.4302 23.9633 11.4172 23.985 11.3998C24.7492 10.7746 25.5133 10.145 26.2775 9.52406C26.4425 9.38945 26.6162 9.25919 26.7855 9.12893C26.994 8.98565 27.198 8.84236 27.4065 8.70341C27.8276 8.41684 28.2531 8.13027 28.6743 7.8437C28.7394 7.80896 28.8046 7.77423 28.8697 7.73949C29.3864 7.43121 29.9031 7.11858 30.4241 6.81464C30.8018 6.5932 31.1926 6.39347 31.5747 6.18071C31.6225 6.16334 31.6702 6.14597 31.718 6.11992C32.3823 5.8073 33.0423 5.48599 33.7153 5.18205C34.1929 4.96495 34.6835 4.7739 35.1698 4.56982C35.5041 4.45259 35.8385 4.33101 36.1728 4.21812C36.6591 4.05313 37.1454 3.88813 37.6317 3.72313C37.6751 3.71445 37.7186 3.70576 37.762 3.69708C38.5175 3.49735 39.2686 3.27591 40.0285 3.10223C40.9446 2.89815 41.8651 2.73315 42.7856 2.55513C42.816 2.55513 42.8464 2.54645 42.8811 2.54211C42.9202 2.53342 42.9636 2.52474 43.0027 2.51605C43.6453 2.4379 44.2923 2.36408 44.9349 2.28593C45.1259 2.2729 45.3213 2.25988 45.5124 2.24685C46.1115 2.21211 46.7151 2.17738 47.3143 2.14264C47.7181 2.14264 48.1175 2.13396 48.5213 2.1383C49.572 2.14698 50.6228 2.18172 51.6692 2.28593C52.1121 2.32935 52.5593 2.37277 53.0022 2.41619C53.3235 2.46395 53.6448 2.51171 53.9661 2.55947C54.2744 2.60289 54.5783 2.65066 54.8866 2.69408C54.9126 2.70276 54.9387 2.72013 54.9691 2.72447C55.4294 2.81565 55.8896 2.90683 56.3455 3.00236C56.6928 3.07617 57.0402 3.15433 57.3919 3.23248C57.5178 3.27156 57.6437 3.31064 57.7697 3.34538C58.2733 3.48432 58.777 3.62761 59.2806 3.76655C59.3197 3.78392 59.3588 3.80129 59.4022 3.81865C59.8581 3.97062 60.314 4.1226 60.77 4.27891C61.0478 4.37443 61.3257 4.4743 61.6036 4.57417C61.9596 4.72179 62.3157 4.87376 62.6674 5.02139C62.9539 5.14297 63.2405 5.2602 63.5271 5.38178C64.1827 5.70743 64.8427 6.02874 65.4983 6.35439C65.8283 6.5411 66.1626 6.72346 66.4926 6.91017C66.6793 7.01437 66.866 7.11858 67.0571 7.22279C67.361 7.41384 67.6606 7.60054 67.9645 7.79594C68.3206 8.02172 68.6809 8.25185 69.037 8.48197C69.2063 8.60355 69.3757 8.72512 69.5407 8.8467C69.9835 9.16801 70.4308 9.49366 70.8737 9.81497C71.1255 10.019 71.3773 10.2231 71.6292 10.4315C72.0547 10.7876 72.4758 11.1436 72.9013 11.504C73.0142 11.6126 73.1271 11.7168 73.24 11.8253C73.6351 12.1987 74.0259 12.5678 74.421 12.9369C74.4471 12.9716 74.4775 13.0063 74.5035 13.0367C75.1896 13.7922 75.8843 14.5391 76.5616 15.3033C76.935 15.7288 77.278 16.1804 77.634 16.6189C77.7469 16.7752 77.8555 16.9315 77.9684 17.0878C78.3071 17.5655 78.6501 18.0431 78.9887 18.5164L78.954 18.512Z" fill="#002B4F"/>
</g>
</svg>
