<svg width="405" height="158" viewBox="0 0 405 158" fill="none" xmlns="http://www.w3.org/2000/svg">
<path d="M218.387 12.6609C215.408 12.6609 213.001 15.098 213.001 18.1176V33.8338C213.001 34.8205 213.799 35.6289 214.777 35.6289H221.998C222.976 35.6289 223.774 34.8324 223.774 33.8338V18.1176C223.774 16.6078 223.166 15.2526 222.201 14.2658C221.224 13.2791 219.877 12.6728 218.387 12.6728V12.6609Z" fill="white"/>
<path d="M199.225 12.6728C196.245 12.6728 193.838 15.1099 193.838 18.1295V33.8457C193.838 34.8324 194.637 35.6408 195.614 35.6408H202.836C203.813 35.6408 204.611 34.8443 204.611 33.8457V18.1295C204.611 16.6197 204.003 15.2525 203.038 14.2777C202.061 13.291 200.714 12.6847 199.225 12.6847V12.6728Z" fill="white"/>
<path d="M254.604 18.3316C254.604 18.1889 254.58 18.0463 254.556 17.9036C254.532 17.7134 254.508 17.5708 254.496 17.4875C254.496 17.4875 254.496 17.4757 254.496 17.4638C254.473 17.3449 254.449 17.2141 254.425 17.0596C254.377 16.7861 254.306 16.5246 254.222 16.2512C254.187 16.1442 254.163 16.0372 254.127 15.9302C254.044 15.6449 253.936 15.3714 253.817 15.0861C253.805 15.0623 253.793 15.0267 253.781 15.0029V14.9672C253.734 14.884 253.674 14.7533 253.591 14.5987C253.507 14.4323 253.436 14.2896 253.364 14.1707C253.328 14.1113 253.293 14.04 253.257 13.9805C253.174 13.8379 253.09 13.6952 253.007 13.5644C252.983 13.5288 252.959 13.4931 252.935 13.4456C252.804 13.2435 252.697 13.0889 252.613 12.97C252.613 12.97 252.602 12.9581 252.59 12.9463C252.542 12.8749 252.494 12.8036 252.435 12.7442C252.399 12.6966 252.363 12.649 252.327 12.6015C252.232 12.4826 252.137 12.3756 252.053 12.2805C251.982 12.1973 251.91 12.126 251.839 12.0427L243.187 3.41191C243.092 3.30492 242.996 3.20981 242.913 3.11471C242.686 2.88883 242.448 2.66296 242.186 2.43708C242.114 2.37764 242.055 2.33009 241.983 2.27065C241.948 2.24687 241.912 2.22309 241.888 2.19932C241.805 2.13988 241.745 2.08044 241.685 2.04477H241.662C241.662 2.04477 241.65 2.02099 241.638 2.00911C241.471 1.89022 241.292 1.75945 241.101 1.64057C240.982 1.55735 240.851 1.47414 240.72 1.40281C240.589 1.33148 240.434 1.23637 240.267 1.15316C240.089 1.05805 239.91 0.974832 239.707 0.891615C239.564 0.832174 239.421 0.772733 239.278 0.713292C239.147 0.665739 239.028 0.618186 238.909 0.570634C238.694 0.499304 238.492 0.427975 238.301 0.380422C238.229 0.356646 238.158 0.33287 238.086 0.320981C237.991 0.297205 237.896 0.273429 237.8 0.249652C237.693 0.225876 237.598 0.202099 237.538 0.190211C237.073 0.0951056 236.597 0.0356646 236.144 0.0118882C236.061 0.0118882 235.953 0 235.834 0C235.739 0 235.596 0 235.453 0H182.648C181.242 0 179.859 0.273429 178.572 0.820286C177.321 1.34337 176.201 2.10421 175.247 3.05527C174.282 4.01821 173.531 5.12381 173.007 6.37208C172.459 7.66789 172.185 9.03503 172.185 10.4378V40.0632C172.185 40.5625 172.22 41.0262 172.28 41.4779C172.28 41.5374 172.304 41.6206 172.316 41.7276C172.339 41.8584 172.363 42.001 172.387 42.1318C172.423 42.2982 172.459 42.4409 172.482 42.536C172.506 42.6073 172.518 42.6786 172.542 42.75C172.578 42.8926 172.614 43.0115 172.637 43.0828V43.1066C172.637 43.1066 172.649 43.1304 172.649 43.1423C172.721 43.3919 172.816 43.6416 172.912 43.8912C172.947 43.9863 172.983 44.0814 173.031 44.1884C173.078 44.3192 173.138 44.4381 173.198 44.557C173.209 44.5807 173.221 44.6164 173.233 44.6402C173.281 44.7472 173.329 44.8423 173.388 44.9374C173.448 45.0444 173.507 45.1633 173.579 45.2703C173.686 45.4605 173.805 45.6626 173.948 45.8647C173.96 45.8885 173.984 45.9122 173.996 45.936C174.056 46.0311 174.115 46.1024 174.163 46.1738C174.246 46.2927 174.33 46.3996 174.389 46.471C174.52 46.6493 174.663 46.8157 174.806 46.9703C174.866 47.0416 174.926 47.101 174.997 47.1724L175.521 47.6955L184.245 56.3976C184.245 56.3976 184.328 56.4808 184.376 56.5284C184.412 56.5641 184.447 56.5878 184.483 56.6235C184.936 57.0158 185.413 57.3606 185.913 57.6697C185.925 57.6697 185.949 57.6934 185.961 57.6934C186.02 57.7291 186.08 57.7648 186.14 57.8004C186.175 57.8242 186.223 57.848 186.259 57.8718C186.545 58.0263 186.831 58.1809 187.129 58.2997C187.236 58.3473 187.355 58.3948 187.462 58.4424C187.891 58.6207 188.332 58.7634 188.785 58.8704C188.976 58.9179 189.155 58.9536 189.274 58.9774C189.441 59.013 189.607 59.0487 189.774 59.0725C189.941 59.0962 190.084 59.12 190.191 59.1319C190.311 59.1438 190.406 59.1557 190.465 59.1557C190.465 59.1557 190.501 59.1557 190.513 59.1557C190.728 59.1795 190.918 59.1795 191.073 59.1913C191.192 59.1913 191.3 59.1913 191.383 59.1913H203.765C203.229 60.1424 202.967 61.2242 202.99 62.3061C203.014 63.3284 203.3 64.3389 203.813 65.2187C204.325 66.1103 205.052 66.8592 205.922 67.3942C206.852 67.9648 207.924 68.2739 209.021 68.2977L216.04 68.4404L215.563 71.8404L214.562 79.0684C214.419 80.0551 214.562 81.0537 214.943 81.9691C215.253 82.6824 215.706 83.3244 216.29 83.8475L224.918 92.4664C225.037 92.5853 225.168 92.7042 225.299 92.7993C225.407 92.8825 225.514 92.9657 225.633 93.0371C225.633 93.0371 225.657 93.0371 225.657 93.0608C226.574 93.6671 227.635 94 228.731 94C230.591 94 232.295 93.0727 233.308 91.5035L247.096 70.2593C248.371 68.2858 248.466 65.7893 247.346 63.7326C246.44 62.0802 244.879 60.927 243.08 60.5347L243.831 59.1913H244.164C245.57 59.1913 246.953 58.9179 248.24 58.3711C249.491 57.848 250.611 57.0871 251.565 56.1361C252.53 55.1731 253.281 54.0675 253.805 52.8193C254.353 51.5235 254.627 50.1563 254.627 48.7535V19.0687C254.627 18.9736 254.627 18.8785 254.627 18.7952C254.627 18.6407 254.616 18.4743 254.604 18.3078V18.3316ZM241.304 40.0751C241.304 43.3087 238.682 45.936 235.441 45.936H234.464C233.653 45.936 232.902 46.3759 232.509 47.0773L228.636 54.02C228.064 55.0543 228.803 56.3144 229.983 56.3144H233.737C235.167 56.3144 236.037 57.8955 235.25 59.0962L226.467 72.6369L221.486 80.3048L221.45 80.3523C221.271 80.6258 220.997 80.7565 220.735 80.7565C220.532 80.7565 220.342 80.6852 220.175 80.5663C219.949 80.3999 219.806 80.1146 219.853 79.7698L220.068 78.26L220.818 72.8747L220.866 72.5299L221.772 66.0152C221.891 65.1711 221.402 64.3984 220.664 64.1012C220.461 64.018 220.246 63.9704 220.02 63.9704L209.843 63.7683C208.675 63.7445 207.96 62.4963 208.52 61.4739L209.759 59.2508L211.046 56.9564L212.333 54.6619L216.195 47.7549C216.647 46.9465 216.064 45.9479 215.134 45.9479H182.648C182.648 45.9479 182.576 45.9479 182.552 45.9479C182.433 45.9479 182.302 45.9479 182.183 45.9241C182.112 45.9241 182.052 45.9241 181.98 45.9003C181.909 45.9003 181.837 45.8885 181.766 45.8766C181.671 45.8647 181.575 45.8409 181.48 45.829C181.397 45.8171 181.313 45.7933 181.218 45.7696C180.956 45.7101 180.693 45.615 180.443 45.5199C180.384 45.4961 180.336 45.4724 180.288 45.4486C180.121 45.3773 179.966 45.3059 179.823 45.2108C179.74 45.1633 179.669 45.1157 179.597 45.0801C179.311 44.9136 179.049 44.7115 178.811 44.4975L178.286 43.9745C178.203 43.8912 178.131 43.7961 178.06 43.701C178.024 43.6535 177.976 43.594 177.941 43.5465C177.905 43.487 177.857 43.4395 177.821 43.3919C177.75 43.273 177.678 43.1661 177.607 43.0472C177.559 42.964 177.512 42.8807 177.464 42.7975C177.452 42.7737 177.44 42.7619 177.428 42.7381C177.428 42.7381 177.428 42.7143 177.416 42.7024C177.392 42.6667 177.38 42.6311 177.369 42.5954C177.345 42.5479 177.321 42.5122 177.309 42.4528C177.285 42.3933 177.261 42.3339 177.237 42.2744C177.178 42.1318 177.13 41.9891 177.083 41.8465C177.059 41.7632 177.023 41.6681 177.011 41.573C177.011 41.5611 177.011 41.5374 176.999 41.5255C176.975 41.4423 176.951 41.3709 176.94 41.2877C176.928 41.2164 176.904 41.1332 176.904 41.0618C176.904 41.0143 176.892 40.9667 176.88 40.9073C176.856 40.729 176.832 40.5625 176.832 40.3842C176.832 40.301 176.832 10.4854 176.832 10.4854C176.832 7.2518 179.466 4.62451 182.707 4.62451H235.489C235.572 4.62451 235.655 4.62451 235.739 4.62451C235.739 4.62451 235.81 4.62451 235.846 4.62451C236.12 4.6364 236.394 4.67206 236.656 4.7315C236.716 4.7315 236.764 4.75528 236.823 4.76717C236.835 4.76717 236.847 4.76717 236.859 4.76717C236.93 4.77906 237.002 4.80283 237.085 4.82661C237.205 4.85039 237.312 4.88605 237.419 4.9336C237.491 4.95738 237.574 4.98116 237.646 5.01682C237.717 5.0406 237.789 5.07626 237.86 5.11193C237.92 5.1357 237.991 5.17137 238.051 5.19514C238.051 5.19514 238.122 5.23081 238.146 5.2427C238.253 5.29025 238.349 5.34969 238.456 5.40913C238.504 5.43291 238.551 5.46857 238.599 5.50424C238.706 5.57557 238.813 5.64689 238.921 5.71822C238.98 5.76578 239.028 5.80144 239.076 5.83711C239.111 5.86088 239.147 5.88466 239.171 5.90844C239.171 5.90844 239.171 5.90844 239.195 5.92032C239.35 6.05109 239.505 6.19375 239.648 6.33641C239.719 6.40774 239.791 6.49096 239.862 6.57417C239.934 6.65739 240.005 6.74061 240.065 6.82383C240.089 6.8476 240.112 6.87138 240.124 6.90704C240.148 6.93082 240.16 6.96649 240.184 6.99026C240.255 7.08537 240.315 7.16858 240.375 7.27558C240.375 7.27558 240.398 7.29935 240.398 7.31124C240.458 7.40635 240.518 7.50145 240.577 7.60845C240.625 7.70355 240.684 7.79866 240.732 7.90565C240.768 7.98887 240.804 8.07209 240.851 8.15531C240.923 8.30985 240.982 8.48818 241.03 8.65461C241.042 8.70216 241.066 8.73783 241.078 8.78538C241.125 8.93993 241.161 9.09447 241.197 9.26091C241.209 9.34413 241.233 9.41545 241.245 9.49867C241.245 9.55811 241.268 9.61755 241.268 9.68888C241.28 9.78399 241.292 9.87909 241.304 9.9742C241.304 10.0931 241.316 10.2239 241.316 10.3427C241.316 10.3427 241.316 10.4022 241.316 10.426V40.0513L241.304 40.0751Z" fill="white"/>
<path d="M7.04053 140.42C9.55888 139.898 12.6188 140.711 13.9592 142.518C16.024 145.321 19.6187 146.851 23.4707 146.851C28.5277 146.851 30.8633 144.962 30.8633 142.247C30.8633 141.117 30.3352 140.135 29.3536 139.309C27.4649 137.725 24.9736 137.042 19.5443 135.613C15.5433 134.631 12.2262 133.575 9.58596 132.594C4.38003 130.475 0 126.399 0 119.46C0 109.495 8.22524 103.003 20.9794 103.003C27.4649 103.003 33.0567 104.763 37.1591 107.905C41.1871 110.992 39.6233 117.389 34.6205 118.222L34.0112 118.323C31.7772 118.696 29.7395 117.795 28.3923 116.157C26.6796 114.085 24.0191 112.813 21.0539 112.813C17.053 112.813 14.4873 114.695 14.4873 117.49C14.9408 121.038 17.73 121.871 25.0548 123.604C29.1302 124.585 32.4474 125.641 35.0944 126.772C40.4492 128.884 44.9037 133.338 44.9037 140.961C44.9037 150.696 36.2249 157.337 23.5452 157.337C15.0356 157.337 8.06954 154.785 3.49996 150.276C0.230172 147.054 1.94969 141.469 6.4448 140.541L7.04053 140.42Z" fill="white"/>
<path d="M77.8115 137.867H68.476C67.9615 137.867 67.5485 138.28 67.5485 138.795V149.037C67.5485 153.208 64.1704 156.586 60.0003 156.586C55.8301 156.586 52.452 153.208 52.452 149.037V106.93C52.452 105.176 53.8736 103.761 55.6202 103.761H77.8047C90.41 103.761 98.9331 110.707 98.9331 120.97C98.9331 131.233 90.4032 137.874 77.8047 137.874L77.8115 137.867ZM76.2273 115.08H69.3628C68.3609 115.08 67.5485 115.893 67.5485 116.895V125.648C67.5485 126.65 68.3609 127.462 69.3628 127.462H76.2273C80.3772 127.462 83.0919 124.897 83.0919 120.97C83.0919 117.423 80.3772 115.087 76.2273 115.087V115.08Z" fill="white"/>
<path d="M131.022 157.337C114.497 157.561 101.668 146.167 101.966 130.245C101.668 114.173 114.497 102.78 131.022 103.003C147.547 102.78 160.375 114.173 160.077 130.245C160.382 146.167 147.553 157.561 131.022 157.337ZM131.022 114.701C123.176 114.701 117.814 120.517 117.814 130.17C117.814 139.824 123.169 145.639 131.022 145.639C138.875 145.639 144.229 139.824 144.229 130.17C144.229 120.517 138.875 114.701 131.022 114.701Z" fill="white"/>
<path d="M234.05 111.31V149.044C234.05 153.214 230.672 156.593 226.502 156.593C222.332 156.593 218.954 153.214 218.954 149.044V111.31C218.954 107.14 222.332 103.761 226.502 103.761C230.672 103.761 234.05 107.14 234.05 111.31Z" fill="white"/>
<path d="M300.313 110.254V143.879C300.313 150.899 294.619 156.586 287.606 156.586C283.05 156.586 278.846 154.149 276.578 150.195L259.654 120.665C259.302 120.049 258.354 120.3 258.354 121.011V150.1C258.354 153.682 255.45 156.593 251.862 156.593C248.28 156.593 245.369 153.688 245.369 150.1V116.468C245.369 109.448 251.063 103.761 258.076 103.761H258.374C262.889 103.761 267.066 106.158 269.348 110.057L286.035 138.605C286.394 139.215 287.328 138.964 287.328 138.253V110.254C287.328 106.672 290.232 103.761 293.82 103.761C297.402 103.761 300.313 106.666 300.313 110.254Z" fill="white"/>
<path d="M325.604 115.656V123.637C325.604 123.746 325.692 123.841 325.807 123.841H342.624C345.602 123.841 348.019 126.257 348.019 129.236C348.019 132.215 345.602 134.631 342.624 134.631H325.801C325.692 134.631 325.604 134.719 325.604 134.828V144.698C325.604 144.806 325.692 144.894 325.801 144.894H345.589C348.804 144.894 351.411 147.501 351.411 150.716C351.411 153.979 348.798 156.599 345.568 156.599C337.289 156.599 322.335 156.599 315.071 156.599C312.755 156.599 310.887 154.724 310.887 152.409V105.643C310.887 104.608 311.726 103.761 312.769 103.761H345.589C348.804 103.761 351.411 106.368 351.411 109.583C351.411 112.84 348.791 115.46 345.562 115.46H325.794C325.686 115.46 325.598 115.548 325.598 115.656H325.604Z" fill="white"/>
<path d="M399.151 115.46H388.963C388.651 115.46 388.401 115.71 388.401 116.021V149.037C388.401 153.208 385.023 156.586 380.852 156.586C376.682 156.586 373.304 153.208 373.304 149.037V116.021C373.304 115.71 373.054 115.46 372.742 115.46H362.554C359.325 115.46 356.705 112.84 356.705 109.611C356.705 106.381 359.325 103.761 362.554 103.761H399.151C402.38 103.761 405 106.381 405 109.611C405 112.84 402.38 115.46 399.151 115.46Z" fill="white"/>
<path d="M205.557 115.46H195.368C195.057 115.46 194.806 115.71 194.806 116.021V149.037C194.806 153.208 191.428 156.586 187.258 156.586C183.088 156.586 179.71 153.208 179.71 149.037V116.021C179.71 115.71 179.459 115.46 179.148 115.46H168.959C165.73 115.46 163.11 112.84 163.11 109.611C163.11 106.381 165.73 103.761 168.959 103.761H205.557C208.786 103.761 211.406 106.381 211.406 109.611C211.406 112.84 208.786 115.46 205.557 115.46Z" fill="white"/>
</svg>
