<svg width="59" height="43" viewBox="0 0 59 43" fill="none" xmlns="http://www.w3.org/2000/svg">
<g clip-path="url(#clip0_384_183)">
<path d="M46.9018 0C42.1235 0 37.9891 2.81948 36.0236 6.90602C36.0236 6.84895 36.0236 6.79188 36.0123 6.74622C35.696 3.91532 33.3915 0.399522 29.3249 0.399522H18.6387V24.4622H29.099C32.8719 24.4622 35.7976 21.0834 36.0123 18.184C36.0236 18.0127 36.0349 17.8301 36.0349 17.6703C38.0004 21.7682 42.1348 24.5877 46.9244 24.5877C51.714 24.5877 59.0226 19.0857 59.0226 12.2939C59.0226 5.50199 53.5778 0 46.9018 0ZM27.7773 18.9259H24.7274V14.7937H27.7773C29.1668 14.7937 29.7655 15.9466 29.7655 16.8598C29.7655 17.773 28.9634 18.9259 27.7773 18.9259ZM27.7773 9.86249H24.7274V5.73029H27.7773C28.9634 5.73029 29.7655 6.70056 29.7655 7.79639C29.7655 8.89222 29.1668 9.86249 27.7773 9.86249ZM32.4878 12.2825C33.0752 12.0998 34.1032 11.6318 34.9052 10.7186C34.7584 11.8601 34.7697 13.013 34.9391 14.1545C34.1484 13.0701 33.1091 12.4765 32.4878 12.2825ZM46.9131 18.378C43.5694 18.378 40.8583 15.6384 40.8583 12.2596C40.8583 8.88081 43.5694 6.14123 46.9131 6.14123C50.2568 6.14123 52.9678 8.88081 52.9678 12.2596C52.9678 15.6384 50.2568 18.378 46.9131 18.378Z" fill="#00FFFF"/>
<path d="M46.9131 17.0767C49.5458 17.0767 51.6801 14.92 51.6801 12.2596C51.6801 9.59919 49.5458 7.4425 46.9131 7.4425C44.2803 7.4425 42.1461 9.59919 42.1461 12.2596C42.1461 14.92 44.2803 17.0767 46.9131 17.0767Z" fill="#00FFFF"/>
<path d="M10.7314 0.399536V9.39449H6.61957V0.399536H0V24.4622H6.61957V15.159H10.7314V24.4622H17.3509V0.399536H10.7314Z" fill="#00FFFF"/>
<path d="M40.1354 27.7383C40.1354 27.7383 42.4737 31.471 46.224 35.0667C45.004 36.2424 42.1687 39.1418 39.8078 42.7831H44.1116C45.8173 40.0892 47.4666 38.3085 48.4042 37.3953C49.3418 38.3085 50.991 40.0892 52.6967 42.7831H57.0006C54.6397 39.1418 51.8043 36.2424 50.5843 35.0667C54.3347 31.4824 56.673 27.7383 56.673 27.7383H52.3691C52.3691 27.7383 51.3412 29.656 48.4042 32.8408C45.4785 29.656 44.4392 27.7383 44.4392 27.7383H40.1354Z" fill="#00FFFF"/>
<path d="M12.6969 42.7831V32.7266C18.5258 27.6127 18.3337 32.9435 18.3337 32.9435V42.7831H21.7903V32.3042C21.7903 32.3042 21.7903 27.3616 17.7915 27.3616C13.7926 27.3616 15.6339 27.6698 14.5947 28.2405C14.5947 28.2405 13.4312 28.8683 12.2112 30.0669C11.9853 29.0966 11.1832 27.3616 8.25751 27.3616C5.3318 27.3616 4.49588 28.7999 3.53571 29.6674V27.7383H0.079071V42.7831H3.52441V32.7837C9.43232 27.567 9.24028 32.9435 9.24028 32.9435V42.7831H12.6969Z" fill="#00FFFF"/>
<path d="M35.3684 27.7383V29.5647C34.25 28.172 32.6008 27.3159 30.398 27.3159C26.3314 27.3159 23.0329 30.8317 23.0329 35.158C23.0329 39.4842 26.3314 43 30.398 43C34.4647 43 34.25 42.1097 35.3684 40.7284V42.7831H38.825V27.7383H35.3684ZM30.8612 39.644C28.3647 39.644 26.354 37.6008 26.354 35.0895C26.354 32.5782 28.376 30.5349 30.8612 30.5349C33.3464 30.5349 35.3684 32.5782 35.3684 35.0895C35.3684 37.6008 33.3464 39.644 30.8612 39.644Z" fill="#00FFFF"/>
</g>
<defs>
<clipPath id="clip0_384_183">
<rect width="59" height="43" fill="white"/>
</clipPath>
</defs>
</svg>
