<svg width="28" height="51" viewBox="0 0 28 51" fill="none" xmlns="http://www.w3.org/2000/svg">
<g id="Group">
<path id="Vector" d="M27.74 1.00123V50.7641C27.6966 50.6556 27.6489 50.5515 27.6012 50.443C27.471 50.0959 27.3408 49.7401 27.2194 49.3887C27.1586 49.2238 27.1065 49.0589 27.0501 48.894C26.9503 48.6207 26.8462 48.356 26.7508 48.0783C26.6293 47.7399 26.5121 47.3971 26.395 47.0587C26.1216 46.3037 25.857 45.5488 25.5836 44.7938C25.5619 44.733 25.5402 44.6723 25.5185 44.6115C25.5793 44.5508 25.5359 44.5204 25.4838 44.4987C25.4838 44.4727 25.4708 44.451 25.4621 44.4293C25.2799 43.926 25.102 43.4183 24.9198 42.9064C24.8373 42.6721 24.7549 42.4378 24.6725 42.1991C24.4902 41.6958 24.308 41.1881 24.1301 40.6805C23.4012 38.6282 22.6766 36.5802 21.9477 34.5279C21.1623 32.3194 20.377 30.1109 19.596 27.9024C19.0189 26.271 18.4419 24.6439 17.8605 23.0125C17.8605 23.0038 17.8605 22.9951 17.8605 22.9865C17.8605 22.9648 17.8692 22.9387 17.8735 22.9127C17.8735 22.7305 17.8735 22.5569 17.8822 22.3747V20.9775C17.8822 20.6348 17.8692 20.2877 17.8692 19.9449C17.8692 19.8321 17.8778 19.7193 17.8822 19.6108C17.8822 19.485 17.8692 19.3548 17.8692 19.2333V16.2004C17.8692 16.157 17.8778 16.1093 17.8822 16.0659C17.8822 16.0312 17.8735 15.9965 17.8735 15.9618C17.8735 15.4802 17.8735 14.9899 17.8735 14.5082V1.17479C17.8735 1.11404 17.8735 1.0533 17.8648 0.992554H27.7487L27.74 1.00123Z" fill="#05CEE2"/>
<path id="Vector_2" d="M10.1287 32.1763C10.1287 32.5581 10.1374 32.9443 10.1374 33.3217C10.1374 33.4215 10.1374 33.5213 10.1287 33.6211C10.1287 33.6558 10.1374 33.6949 10.1374 33.7339V36.0422C10.1374 36.0813 10.1374 36.1203 10.1287 36.1594C10.1287 36.2288 10.1374 36.2939 10.1374 36.3633V49.4972C10.1374 49.5536 10.1374 49.61 10.1374 49.6707C10.1157 49.6881 0.422724 50.5211 0.25351 50.5211V1.03162H0.392356C0.440083 1.15744 0.483468 1.28761 0.531195 1.41344C0.51384 1.48286 0.505166 1.54794 0.596282 1.57832C0.596282 1.59133 0.596277 1.60435 0.604955 1.61737C0.700409 1.89506 0.800206 2.16841 0.899999 2.4461C1.03016 2.81924 1.16467 3.19239 1.29049 3.56553C1.31219 3.67835 1.33388 3.79116 1.36425 3.89963C1.37293 3.92132 1.40764 3.93434 1.42934 3.95604C1.43802 3.97773 1.44669 3.99943 1.45103 4.02112C1.60723 4.44633 1.75909 4.87588 1.91095 5.29676C2.01074 5.57878 2.11487 5.85648 2.21467 6.1385C2.48801 6.89781 2.75702 7.66146 3.03037 8.4251C3.04339 8.46415 3.05207 8.50321 3.06508 8.5466C3.16488 8.82429 3.26466 9.10198 3.36446 9.38401C3.54235 9.88298 3.7159 10.3776 3.8938 10.8809C4.79627 13.4148 5.69442 15.9488 6.5969 18.4827C7.37789 20.6738 8.15454 22.8606 8.92685 25.0518C9.33037 26.1929 9.73822 27.3384 10.1417 28.4795C10.1417 28.5012 10.133 28.5186 10.133 28.5403C10.133 28.575 10.1331 28.6053 10.1417 28.6401C10.1417 28.8917 10.1331 29.139 10.1287 29.395V32.1849V32.1763Z" fill="#05CEE2"/>
<path id="Vector_3" d="M1.42944 3.95627C1.42944 3.95627 1.37299 3.92153 1.36431 3.89982C1.33392 3.78693 1.31221 3.67404 1.2905 3.56549C1.33826 3.69575 1.38602 3.82601 1.42944 3.95627Z" fill="#00FFFF"/>
<path id="Vector_4" d="M17.6218 49.9874C17.9212 49.9701 18.3681 49.9614 18.6892 49.9744C19.0059 49.9874 19.3183 50.0004 19.6351 50.0178C19.9995 50.0395 20.3596 50.0612 20.7241 50.0829C21.0495 50.1046 21.3749 50.1263 21.7003 50.1523C21.9867 50.174 22.2731 50.1957 22.5594 50.2217C22.9933 50.2608 23.4272 50.2955 23.8567 50.3389C24.1605 50.3649 24.4642 50.3953 24.7679 50.43C25.0846 50.4647 25.397 50.5081 25.7138 50.5428C26.0088 50.5775 26.3039 50.6035 26.5989 50.6339C26.8505 50.66 27.7227 50.7814 27.7313 50.7641L10.0549 0.970825C10.0549 0.970825 0.275153 1.00554 0.244781 1.02723L17.6132 49.9874H17.6218Z" fill="#00FFFF"/>
</g>
</svg>
