<svg width="63" height="65" viewBox="0 0 63 65" fill="none" xmlns="http://www.w3.org/2000/svg">
<g id="Prime" clip-path="url(#clip0_267_489)">
<path id="Vector" d="M0 6.23878C0.0401777 6.21211 0.0925521 6.1941 0.117663 6.15662C0.212368 6.01321 0.343663 5.93899 0.508678 5.93827C1.1795 5.93466 1.85032 5.92962 2.52043 5.93827C2.79378 5.94187 2.97171 6.10546 3.05637 6.36273C3.11449 6.53929 3.15538 6.72162 3.20632 6.90106C3.22139 6.95511 3.24578 7.007 3.27376 7.0805C3.37923 6.99258 3.46532 6.9162 3.55572 6.84557C5.08463 5.65433 6.78213 5.25364 8.65685 5.77179C9.69358 6.05789 10.4778 6.71585 11.0833 7.60082C11.6415 8.4166 11.9586 9.32967 12.1121 10.2997C12.3367 11.7215 12.3137 13.1398 11.9529 14.54C11.6895 15.5619 11.2433 16.4952 10.5337 17.2807C9.46471 18.4654 8.12593 18.9569 6.55255 18.8236C5.47995 18.7328 4.50851 18.3804 3.65186 17.6857C3.57725 17.7851 3.6081 17.8947 3.6081 17.9941C3.60595 19.6257 3.60738 21.2572 3.60451 22.8888C3.60451 23.0351 3.58801 23.1828 3.56577 23.327C3.5385 23.5006 3.42945 23.6066 3.2587 23.6383C3.15395 23.6577 3.04705 23.675 2.94086 23.6758C2.20188 23.6786 1.4629 23.6779 0.724633 23.6772C0.464195 23.6772 0.215237 23.6484 0.0746156 23.3781C0.0724633 23.3738 0.0258285 23.3925 0 23.4005C0 17.6799 0 11.9593 0 6.23878ZM3.60594 15.4567C4.53362 16.0145 5.50577 16.2256 6.54107 16.0772C7.26929 15.9727 7.82675 15.5835 8.15391 14.9075C8.28521 14.6366 8.38924 14.3447 8.45596 14.0514C8.7042 12.956 8.69201 11.8498 8.53847 10.7422C8.47749 10.3026 8.36341 9.87665 8.16252 9.47885C7.86119 8.88286 7.3891 8.49731 6.74052 8.36255C5.73034 8.15212 4.7754 8.34093 3.85706 8.79495C3.66334 8.89079 3.60021 9.00754 3.60092 9.22301C3.60881 11.2077 3.60594 13.1924 3.60594 15.1778C3.60594 15.2657 3.60594 15.3529 3.60594 15.4574V15.4567Z" fill="#002B4F"/>
<path id="Vector_2" d="M63 38.6149C62.8751 38.6538 62.8952 38.7648 62.8823 38.8585C62.7718 39.6822 62.5559 40.4742 62.1806 41.2165C61.3204 42.9186 59.9357 43.9167 58.094 44.2655C56.9274 44.4868 55.7544 44.4789 54.5964 44.187C52.4082 43.6357 51.0529 42.2059 50.4107 40.0562C50.108 39.0422 50.0169 37.9937 50.0621 36.9386C50.1044 35.9549 50.2414 34.9828 50.6138 34.0618C51.3729 32.183 52.7152 30.9767 54.6789 30.5234C56.0658 30.2034 57.4548 30.2243 58.8222 30.6502C60.5628 31.1914 61.7344 32.3574 62.4196 34.0459C62.6535 34.6224 62.7826 35.2256 62.8809 35.8375C62.896 35.9304 62.8723 36.0429 62.9993 36.0796V38.6156L63 38.6149ZM53.8409 37.3494C53.8337 38.1789 53.9055 38.999 54.1839 39.7859C54.3532 40.2645 54.6021 40.6911 55.0075 41.0118C55.3641 41.2943 55.7723 41.4406 56.215 41.4802C57.0056 41.5508 57.7195 41.3858 58.2856 40.7689C58.6981 40.3192 58.9004 39.7708 59.0253 39.1907C59.2398 38.1933 59.2656 37.1829 59.1322 36.174C59.0776 35.7582 58.9801 35.3424 58.8524 34.9431C58.6952 34.4517 58.4326 34.0164 58.0108 33.6971C57.4081 33.2424 56.7222 33.1696 56.0119 33.2813C55.1352 33.419 54.5684 33.9623 54.2448 34.7767C53.917 35.6018 53.8309 36.468 53.8402 37.3487L53.8409 37.3494Z" fill="#002B4F"/>
<path id="Vector_3" d="M63 10.7212C62.9814 10.7104 62.962 10.6989 62.9433 10.6881C62.9189 10.7392 62.8888 10.789 62.8716 10.8423C62.5925 11.6905 62.0314 12.2865 61.2573 12.6929C60.5843 13.0468 59.859 13.2219 59.1128 13.3105C58.1543 13.4244 57.1929 13.4323 56.2337 13.3163C55.9452 13.2817 55.6597 13.2197 55.3727 13.1707C55.3282 13.1635 55.2837 13.1585 55.2378 13.152C55.179 14.7367 56.1712 15.9279 57.7181 16.1449C58.8488 16.3034 59.9659 16.2018 61.0722 15.9409C61.3369 15.8782 61.5995 15.8076 61.8636 15.7463C61.9575 15.7247 62.0558 15.7081 62.1513 15.7103C62.3113 15.7132 62.4304 15.7932 62.4791 15.9532C62.505 16.0368 62.5279 16.1247 62.5286 16.2112C62.5329 16.6529 62.5301 17.0954 62.5294 17.5372C62.5294 17.8824 62.3672 18.1022 62.0472 18.229C61.2752 18.536 60.4781 18.7435 59.6574 18.8502C58.7484 18.9684 57.835 18.9835 56.9253 18.856C55.3383 18.6333 53.9945 17.9724 53.0539 16.609C52.5682 15.9049 52.2747 15.1172 52.1269 14.2769C51.8572 12.7369 51.8808 11.2026 52.3364 9.69932C52.8229 8.09298 53.7771 6.8621 55.3038 6.13784C56.347 5.64275 57.4612 5.51159 58.6006 5.55987C59.2735 5.58798 59.935 5.69031 60.5635 5.94614C61.7086 6.41169 62.5193 7.20153 62.8838 8.41799C62.9003 8.47204 62.934 8.52033 62.9591 8.57149C62.9656 8.56789 62.9735 8.56501 62.9792 8.56068C62.9864 8.5542 62.9921 8.54627 62.9993 8.53906V10.7212H63ZM55.2558 10.9547C55.3254 10.9778 55.3698 10.9994 55.4165 11.0073C56.1174 11.1291 56.8249 11.1831 57.5351 11.1702C57.9821 11.1623 58.4269 11.1255 58.8545 10.9698C59.4163 10.7652 59.7356 10.3652 59.7736 9.76562C59.8281 8.91597 59.4938 8.2717 58.564 8.1146C58.2978 8.06992 58.0223 8.0555 57.7525 8.06631C56.8191 8.10163 56.1282 8.53834 55.6963 9.38223C55.448 9.86795 55.3246 10.389 55.2551 10.9547H55.2558Z" fill="#002B4F"/>
<path id="Vector_4" d="M26.8337 0.105957C26.8286 0.126856 26.8164 0.163609 26.8207 0.166492C26.8717 0.192436 26.9255 0.214055 26.9793 0.234234C27.823 0.551322 28.3116 1.25973 28.1653 2.40269C28.0555 3.26099 27.3718 3.86778 26.4692 3.94489C26.099 3.9766 25.7302 3.97444 25.3744 3.85769C24.4216 3.54421 24.0112 2.74212 24.1145 1.76491C24.1948 1.0111 24.6052 0.505921 25.304 0.235675C25.3636 0.212614 25.4174 0.172257 25.4741 0.140549C25.4691 0.134783 25.4647 0.127577 25.4583 0.122532C25.4511 0.116046 25.4418 0.111722 25.4339 0.106678C25.9002 0.106678 26.3673 0.106678 26.8337 0.106678V0.105957Z" fill="#002B4F"/>
<path id="Vector_5" d="M42.2224 8.952V9.3462C42.2224 12.1373 42.2224 14.9277 42.2224 17.7188C42.2224 17.8362 42.2267 17.9559 42.2131 18.0719C42.1715 18.4193 42.0251 18.5511 41.6786 18.567C41.6205 18.5699 41.5616 18.5684 41.5035 18.5692C40.794 18.5692 40.0844 18.5692 39.3748 18.5692C39.2873 18.5692 39.199 18.572 39.113 18.5605C38.8575 18.5274 38.709 18.3803 38.6775 18.1223C38.6631 18.0056 38.6667 17.8867 38.6667 17.7692C38.6667 15.2239 38.6696 12.6792 38.6617 10.1339C38.661 9.8521 38.6301 9.56312 38.5634 9.28999C38.4278 8.73508 38.054 8.42304 37.4937 8.35458C36.7654 8.26594 36.0616 8.39998 35.3721 8.62626C35.1239 8.7077 34.8857 8.823 34.6418 8.91885C34.5262 8.96425 34.4746 9.04136 34.4882 9.1682C34.4954 9.23594 34.4897 9.30584 34.4897 9.37431C34.4897 12.1553 34.4897 14.9363 34.4897 17.7173C34.4897 17.855 34.4925 17.9933 34.4767 18.1296C34.4466 18.3962 34.3074 18.531 34.0434 18.5619C33.976 18.5699 33.9078 18.5684 33.8396 18.5684C33.0913 18.5684 32.343 18.5684 31.594 18.5684C31.5165 18.5684 31.4369 18.5706 31.3615 18.5562C31.152 18.5173 31.005 18.4012 30.9677 18.1793C30.9483 18.064 30.9368 17.9451 30.9368 17.8283C30.9354 14.104 30.9354 10.3796 30.9354 6.65527C30.9354 6.64518 30.9354 6.63581 30.9354 6.62572C30.9433 6.06794 31.0774 5.93245 31.6299 5.93029C32.155 5.92813 32.6795 5.92813 33.2047 5.93029C33.7162 5.93245 33.8619 6.04776 34.0097 6.55438C34.0635 6.74031 34.123 6.9248 34.1826 7.12009C34.4983 6.92912 34.7874 6.74896 35.0816 6.57744C35.9045 6.09748 36.7748 5.74724 37.7218 5.61608C38.45 5.51519 39.1754 5.51231 39.8907 5.71049C40.611 5.91011 41.1914 6.31296 41.6104 6.94353C41.6477 6.99974 41.6872 7.05523 41.7353 7.12442C41.906 7.01776 42.0696 6.91471 42.2332 6.81309C43.092 6.28053 43.9996 5.86687 44.9961 5.6795C45.7659 5.53537 46.5372 5.49213 47.3128 5.64419C48.625 5.90074 49.5599 6.82967 49.8088 8.16288C49.877 8.52753 49.9136 8.90372 49.915 9.27485C49.9236 12.1243 49.9172 14.9745 49.9215 17.824C49.9222 18.5346 49.651 18.5785 49.1839 18.5713C48.4844 18.5605 47.7842 18.5684 47.0846 18.5684C46.9971 18.5684 46.9089 18.5713 46.8228 18.5612C46.553 18.5302 46.4023 18.3789 46.3729 18.1058C46.3607 17.989 46.3636 17.8701 46.3636 17.7526C46.3636 15.2275 46.3665 12.7016 46.3586 10.1764C46.3578 9.87516 46.3277 9.56528 46.2553 9.27413C46.1204 8.73292 45.7509 8.42664 45.2027 8.35602C44.4745 8.26305 43.7707 8.40214 43.0805 8.62194C42.7949 8.71274 42.5194 8.83742 42.2231 8.95272L42.2224 8.952Z" fill="#002B4F"/>
<path id="Vector_6" d="M30.2057 31.4322C30.2129 31.2578 30.2208 31.1439 30.2215 31.0301C30.2222 29.2219 30.2215 27.4145 30.2243 25.6064C30.2243 25.4507 30.2423 25.2929 30.2688 25.1394C30.3061 24.9174 30.459 24.8072 30.667 24.7654C30.705 24.7575 30.7445 24.7553 30.7832 24.7553C31.6679 24.7553 32.5518 24.7495 33.4364 24.7582C33.7772 24.7618 33.93 24.9268 33.9508 25.2677C33.958 25.3852 33.9551 25.5033 33.9551 25.6215C33.9551 31.4675 33.9551 37.3134 33.9551 43.1587C33.9551 43.2769 33.9587 43.3951 33.9494 43.5125C33.9257 43.795 33.8009 43.9406 33.5282 43.9983C33.4149 44.022 33.2972 44.0314 33.1817 44.0321C32.5891 44.0357 31.9957 44.0336 31.4031 44.0336C31.345 44.0336 31.2862 44.0336 31.2281 44.0285C30.8622 43.9939 30.6857 43.8498 30.5802 43.4945C30.525 43.31 30.4769 43.1234 30.4159 42.9014C30.314 42.9648 30.2459 42.9965 30.1906 43.0427C29.4086 43.6992 28.5146 44.12 27.508 44.2447C26.0717 44.4227 24.7157 44.2137 23.547 43.2617C22.7391 42.6038 22.178 41.7664 21.81 40.7935C21.4993 39.9712 21.3429 39.118 21.2762 38.2388C21.1837 37.0209 21.2812 35.8246 21.5919 34.6492C21.8961 33.4983 22.4457 32.4815 23.3059 31.6505C24.1173 30.8665 25.0859 30.4514 26.2023 30.3505C27.3351 30.2481 28.4085 30.437 29.4201 30.9616C29.669 31.0906 29.9029 31.2499 30.2078 31.4336L30.2057 31.4322ZM30.2215 37.2904C30.2215 36.2591 30.2121 35.2286 30.2279 34.1973C30.2322 33.9076 30.1347 33.7505 29.8742 33.6367C29.0922 33.2944 28.2793 33.1358 27.432 33.1963C26.8422 33.2381 26.3034 33.4392 25.9196 33.9177C25.7266 34.1584 25.5587 34.4315 25.4346 34.7148C25.1433 35.3792 25.0543 36.0948 25.0342 36.8126C25.0192 37.3704 25.0472 37.9311 25.0902 38.4874C25.1304 39.0077 25.2559 39.5151 25.4769 39.9907C25.8313 40.7524 26.406 41.2338 27.2368 41.383C28.2069 41.5574 29.1037 41.3434 29.9603 40.8793C30.1612 40.7704 30.2272 40.6364 30.2251 40.4123C30.215 39.3716 30.2208 38.331 30.2208 37.2897L30.2215 37.2904Z" fill="#002B4F"/>
<path id="Vector_7" d="M39.9696 38.287C40.0449 39.1115 40.2186 39.848 40.7237 40.462C41.0508 40.8591 41.4899 41.0926 41.9713 41.2417C42.4097 41.3772 42.861 41.4327 43.3201 41.45C44.4494 41.4925 45.545 41.2958 46.6298 41.0118C46.7238 40.9873 46.817 40.9592 46.9124 40.9405C47.2332 40.8771 47.4391 41.0335 47.4764 41.365C47.4821 41.414 47.4821 41.463 47.4821 41.512C47.4821 41.9249 47.4749 42.3371 47.4835 42.7501C47.4922 43.145 47.3164 43.3972 46.9555 43.5399C46.2007 43.839 45.4244 44.0588 44.6202 44.1503C44.0232 44.2188 43.4199 44.2743 42.8208 44.2613C41.736 44.2375 40.6756 44.0602 39.6912 43.555C38.4637 42.9245 37.6285 41.9415 37.1407 40.6508C36.8752 39.9489 36.7425 39.2196 36.6779 38.4701C36.5717 37.2435 36.6571 36.0372 36.9835 34.8524C37.2619 33.842 37.7469 32.9434 38.4744 32.1874C39.3691 31.257 40.4725 30.7389 41.7274 30.5465C42.6931 30.3987 43.6624 30.3923 44.6223 30.5998C45.4739 30.7836 46.2423 31.136 46.873 31.7644C47.401 32.2905 47.7461 32.9124 47.9011 33.6439C48.0453 34.3256 48.0582 35.0081 47.8868 35.6869C47.6557 36.6036 47.1191 37.2817 46.304 37.7393C45.5873 38.1415 44.8139 38.3584 44.0039 38.4391C43.473 38.4917 42.9399 38.54 42.4075 38.5443C41.6987 38.5501 40.9913 38.4917 40.2961 38.3368C40.2035 38.3159 40.1081 38.3079 39.9696 38.2878V38.287ZM41.9304 36.262C42.6213 36.2425 43.0956 36.2173 43.5569 36.084C44.1746 35.9053 44.5793 35.5284 44.6438 34.8567C44.6632 34.6549 44.6503 34.4459 44.6216 34.2442C44.5484 33.7224 44.2593 33.3642 43.7678 33.1848C43.1838 32.9715 42.5883 32.9643 41.9914 33.1221C41.4777 33.2576 41.053 33.5329 40.7323 33.9689C40.3434 34.4957 40.1676 35.1032 40.0571 35.7374C40.0076 36.022 40.0162 36.0501 40.2917 36.0833C40.9073 36.1582 41.5243 36.2188 41.9297 36.2627L41.9304 36.262Z" fill="#002B4F"/>
<path id="Vector_8" d="M6.72903 40.4742C6.77208 40.3351 6.81727 40.1967 6.85817 40.0569C7.51249 37.8041 8.16538 35.5521 8.81898 33.2993C8.99691 32.6868 9.17413 32.0742 9.35205 31.4616C9.36569 31.4148 9.38004 31.3672 9.39582 31.3211C9.54577 30.8866 9.76244 30.7194 10.2187 30.715C10.9477 30.7078 11.6766 30.7122 12.4056 30.7122C12.5419 30.7122 12.6782 30.7071 12.8138 30.7158C13.1503 30.7367 13.288 30.9024 13.2335 31.239C13.2105 31.3831 13.1603 31.5243 13.1094 31.6613C12.2606 33.9198 11.4097 36.1783 10.5588 38.4361C9.95687 40.0331 9.35564 41.6308 8.75369 43.2278C8.72284 43.3099 8.68554 43.3907 8.65253 43.4721C8.5033 43.8418 8.22206 44.0241 7.83607 44.0277C7.06839 44.0356 6.3007 44.0335 5.53302 44.0292C5.05807 44.0263 4.79261 43.7467 4.63692 43.32C4.41522 42.7118 4.1842 42.1072 3.95605 41.5011C3.04703 39.0869 2.13729 36.6727 1.22756 34.2585C0.902549 33.3959 0.574671 32.534 0.253967 31.6692C0.192983 31.5049 0.139891 31.3326 0.12052 31.1597C0.0911039 30.8966 0.217377 30.7561 0.477814 30.7194C0.544537 30.71 0.613413 30.7122 0.681572 30.7122C1.50737 30.7122 2.33388 30.71 3.15967 30.7122C3.70494 30.7143 3.9087 30.8599 4.0651 31.3989C4.46473 32.7747 4.85431 34.154 5.24604 35.5319C5.70019 37.1274 6.15291 38.723 6.60706 40.3178C6.62284 40.3733 6.64652 40.4259 6.66661 40.4799C6.68741 40.4778 6.70822 40.4756 6.72903 40.4734V40.4742Z" fill="#002B4F"/>
<path id="Vector_9" d="M18.0225 7.75142C18.0792 7.69665 18.1416 7.64044 18.1997 7.57918C18.6058 7.154 19.0363 6.75908 19.5292 6.43622C20.3284 5.91375 21.2095 5.74223 22.145 5.81286C22.4923 5.8388 22.6336 5.98581 22.6379 6.34038C22.6465 7.08698 22.6473 7.83358 22.6372 8.58017C22.6322 8.93834 22.4715 9.094 22.1135 9.11562C21.9693 9.12427 21.8222 9.10914 21.6773 9.09616C20.4834 8.98735 19.3391 9.19922 18.1933 9.62513C18.1933 9.74331 18.1933 9.85934 18.1933 9.97464C18.1933 12.5683 18.1933 15.1612 18.1933 17.7548C18.1933 17.8824 18.1962 18.0114 18.1753 18.1368C18.128 18.42 17.9895 18.5396 17.7033 18.5649C17.6552 18.5692 17.6064 18.5692 17.5576 18.5692C16.8 18.5692 16.0416 18.5721 15.284 18.5692C14.8004 18.567 14.6383 18.4034 14.6383 17.9112C14.6368 14.1292 14.6376 10.3472 14.6383 6.5645C14.6383 6.49604 14.6383 6.42613 14.6483 6.35839C14.6849 6.10616 14.8148 5.97428 15.0652 5.94113C15.1706 5.92744 15.2783 5.92744 15.3852 5.92672C15.8709 5.92528 16.3566 5.92528 16.843 5.92672C17.4371 5.92816 17.5849 6.04779 17.7248 6.63801C17.8109 7.0005 17.8977 7.36227 17.9852 7.72476C17.9867 7.73052 17.9989 7.73413 18.0247 7.7507L18.0225 7.75142Z" fill="#002B4F"/>
<path id="Vector_10" d="M18.7866 37.3934C18.7866 39.3384 18.7809 41.2842 18.7902 43.2292C18.7931 43.7712 18.7063 44.0357 17.9996 44.0335C17.2807 44.0313 16.5611 44.0335 15.8422 44.0335C15.8128 44.0335 15.7841 44.0335 15.7547 44.0335C15.2589 44.0184 15.0702 43.8288 15.0551 43.3316C15.053 43.253 15.0544 43.1745 15.0544 43.0959C15.0544 39.2743 15.0544 35.4526 15.0559 31.6303C15.0559 31.4645 15.0709 31.2973 15.0917 31.1323C15.1226 30.8952 15.2783 30.7734 15.4992 30.7331C15.594 30.7158 15.6922 30.7143 15.7891 30.7143C16.5568 30.7129 17.3245 30.7136 18.0921 30.7143C18.1503 30.7143 18.2091 30.7129 18.2672 30.7179C18.6116 30.7453 18.7536 30.8873 18.7809 31.2354C18.7902 31.3528 18.7866 31.471 18.7866 31.5892C18.7866 33.5249 18.7866 35.4599 18.7866 37.3955V37.3934Z" fill="#002B4F"/>
<path id="Vector_11" d="M24.372 12.2353C24.372 10.3774 24.3713 8.52031 24.372 6.66246C24.372 6.04558 24.4897 5.92883 25.1089 5.92739C25.8184 5.92595 26.528 5.92523 27.2376 5.92739C27.795 5.92955 27.9278 6.05999 27.9278 6.6221C27.9292 10.3666 27.9285 14.1112 27.9285 17.8557C27.9285 17.8852 27.9285 17.9148 27.9285 17.9443C27.9106 18.4077 27.7592 18.5655 27.3057 18.5677C26.5381 18.572 25.7697 18.572 25.002 18.5677C24.5335 18.5648 24.3735 18.4034 24.3728 17.9249C24.3699 16.0281 24.3713 14.1313 24.3713 12.2346L24.372 12.2353Z" fill="#002B4F"/>
<path id="Vector_12" d="M16.9148 28.6512C16.3982 28.6468 15.9175 28.5308 15.4956 28.208C15.1807 27.9673 14.9712 27.6552 14.8729 27.274C14.6928 26.5757 14.7559 25.9127 15.2008 25.3188C15.4526 24.9837 15.8006 24.792 16.1909 24.6832C16.6866 24.5441 17.1874 24.5405 17.6846 24.6897C18.5004 24.934 18.9624 25.4947 19.0571 26.3364C19.1418 27.0902 18.9567 27.7626 18.3153 28.2375C17.8991 28.5459 17.4242 28.6584 16.9148 28.6504V28.6512Z" fill="#002B4F"/>
<g id="Group">
<path id="Vector_13" d="M24.6066 63.5864C22.8467 63.2967 21.109 62.9039 19.3979 62.3973C13.3964 60.6209 8.01183 57.6777 3.21921 53.6255C2.33028 52.8738 1.48942 52.0638 0.631341 51.2747C0.517983 51.1709 0.417539 51.0427 0.343641 50.9079C0.217368 50.678 0.256111 50.3847 0.406777 50.2153C0.564618 50.0381 0.81788 49.9905 1.07975 50.1036C1.2132 50.1613 1.33876 50.2391 1.46288 50.3162C4.3076 52.0999 7.28792 53.6132 10.3945 54.8737C13.5083 56.137 16.7053 57.1264 19.9833 57.8457C21.7634 58.2362 23.5577 58.5425 25.3671 58.763C28.2556 59.1154 31.152 59.2689 34.0613 59.1789C36.3048 59.109 38.5354 58.905 40.7523 58.5605C46.0637 57.7354 51.177 56.2235 56.0758 53.9837C56.3154 53.8741 56.5543 53.7689 56.8291 53.7776C57.5724 53.8013 58.0179 54.5631 57.642 55.2117C57.5229 55.4178 57.3385 55.5972 57.1513 55.7478C55.7357 56.8829 54.2255 57.8738 52.6442 58.7551C49.5591 60.4753 46.2968 61.7408 42.8946 62.651C40.7832 63.216 38.6416 63.6253 36.472 63.8783C35.7559 63.9619 35.0356 64.0087 34.3174 64.0743C33.935 64.1622 26.5997 64.0743 24.6066 63.585V63.5864Z" fill="#002B4F"/>
<path id="Vector_14" d="M56.3872 51.9334C55.4014 52.0206 54.2563 52.1186 53.112 52.226C52.6564 52.2685 52.2029 52.3341 51.7481 52.3889C51.7194 52.3925 51.69 52.3989 51.6613 52.3982C51.4919 52.3925 51.3233 52.3759 51.2286 52.208C51.1368 52.0451 51.1648 51.8707 51.2674 51.7338C51.3829 51.5788 51.5185 51.4311 51.672 51.3158C52.6463 50.5843 53.7383 50.0964 54.9056 49.7851C56.9217 49.2475 58.9607 49.1351 61.014 49.5315C61.4503 49.6158 61.8736 49.775 62.2954 49.9221C62.7087 50.0662 62.8888 50.3934 62.9483 50.8193C63.0358 51.4506 63.0036 52.0804 62.9282 52.7059C62.6836 54.7382 62.111 56.6724 61.1884 58.4971C60.6166 59.6278 59.9135 60.6641 58.993 61.5376C58.8595 61.6644 58.7103 61.7804 58.5517 61.8727C58.3953 61.9635 58.2131 61.9945 58.0595 61.8554C57.9218 61.7307 57.9067 61.565 57.9548 61.3927C57.9864 61.2796 58.0208 61.1657 58.061 61.0555C58.6443 59.4679 59.2132 57.8759 59.6329 56.2343C59.8353 55.4423 60.0218 54.646 60.0304 53.8222C60.0326 53.5873 60.0125 53.3502 59.978 53.1174C59.9235 52.7463 59.6989 52.5027 59.3668 52.3449C58.9363 52.141 58.475 52.0617 58.0093 52.0199C57.5243 51.9766 57.0365 51.9673 56.3872 51.9348V51.9334Z" fill="#002B4F"/>
</g>
</g>
<defs>
<clipPath id="clip0_267_489">
<rect width="63" height="64" fill="white" transform="translate(0 0.105957)"/>
</clipPath>
</defs>
</svg>
