<svg width="63" height="64" viewBox="0 0 63 64" fill="none" xmlns="http://www.w3.org/2000/svg">
<g clip-path="url(#clip0_267_357)">
<path d="M0 6.13276C0.0401777 6.1061 0.0925521 6.08808 0.117663 6.05061C0.212368 5.9072 0.343663 5.83297 0.508678 5.83225C1.1795 5.82864 1.85032 5.8236 2.52043 5.83225C2.79378 5.83585 2.97171 5.99944 3.05637 6.25671C3.11449 6.43327 3.15538 6.6156 3.20632 6.79504C3.22139 6.84909 3.24578 6.90098 3.27376 6.97449C3.37923 6.88657 3.46532 6.81018 3.55572 6.73955C5.08463 5.54831 6.78213 5.14762 8.65685 5.66578C9.69358 5.95188 10.4778 6.60984 11.0833 7.4948C11.6415 8.31058 11.9586 9.22365 12.1121 10.1937C12.3367 11.6155 12.3137 13.0338 11.9529 14.434C11.6895 15.4559 11.2433 16.3891 10.5337 17.1746C9.46471 18.3594 8.12593 18.8509 6.55255 18.7176C5.47995 18.6268 4.50851 18.2744 3.65186 17.5797C3.57725 17.6791 3.6081 17.7886 3.6081 17.8881C3.60595 19.5197 3.60738 21.1512 3.60451 22.7828C3.60451 22.9291 3.58801 23.0768 3.56577 23.2209C3.5385 23.3946 3.42945 23.5006 3.2587 23.5323C3.15395 23.5517 3.04705 23.569 2.94086 23.5697C2.20188 23.5726 1.4629 23.5719 0.724633 23.5712C0.464195 23.5712 0.215237 23.5424 0.0746156 23.2721C0.0724633 23.2678 0.0258285 23.2865 0 23.2945C0 17.5739 0 11.8533 0 6.13276ZM3.60594 15.3507C4.53362 15.9085 5.50577 16.1196 6.54107 15.9712C7.26929 15.8667 7.82675 15.4775 8.15391 14.8015C8.28521 14.5306 8.38924 14.2387 8.45596 13.9454C8.7042 12.85 8.69201 11.7438 8.53847 10.6361C8.47749 10.1965 8.36341 9.77063 8.16252 9.37283C7.86119 8.77685 7.3891 8.3913 6.74052 8.25653C5.73034 8.0461 4.7754 8.23491 3.85706 8.68893C3.66334 8.78477 3.60021 8.90152 3.60092 9.117C3.60881 11.1017 3.60594 13.0864 3.60594 15.0718C3.60594 15.1597 3.60594 15.2469 3.60594 15.3514V15.3507Z" fill="#00FFFF"/>
<path d="M63 38.509C62.8751 38.5479 62.8952 38.6589 62.8823 38.7526C62.7718 39.5763 62.5559 40.3683 62.1806 41.1106C61.3204 42.8127 59.9357 43.8109 58.094 44.1597C56.9274 44.3809 55.7544 44.373 54.5964 44.0811C52.4082 43.5298 51.0529 42.1 50.4107 39.9503C50.108 38.9363 50.0169 37.8878 50.0621 36.8327C50.1044 35.849 50.2414 34.8769 50.6138 33.9559C51.3729 32.0771 52.7152 30.8708 54.6789 30.4175C56.0658 30.0975 57.4548 30.1184 58.8222 30.5443C60.5628 31.0855 61.7344 32.2515 62.4196 33.94C62.6535 34.5166 62.7826 35.1197 62.8809 35.7316C62.896 35.8245 62.8723 35.937 62.9993 35.9737V38.5097L63 38.509ZM53.8409 37.2435C53.8337 38.073 53.9055 38.8931 54.1839 39.6801C54.3532 40.1586 54.6021 40.5852 55.0075 40.9059C55.3641 41.1884 55.7723 41.3347 56.215 41.3743C57.0056 41.4449 57.7195 41.2799 58.2856 40.663C58.6981 40.2133 58.9004 39.6649 59.0253 39.0848C59.2398 38.0874 59.2656 37.077 59.1322 36.0681C59.0776 35.6523 58.9801 35.2365 58.8524 34.8372C58.6952 34.3458 58.4326 33.9105 58.0108 33.5912C57.4081 33.1365 56.7222 33.0637 56.0119 33.1754C55.1352 33.3131 54.5684 33.8564 54.2448 34.6708C53.917 35.4959 53.8309 36.3622 53.8402 37.2428L53.8409 37.2435Z" fill="#00FFFF"/>
<path d="M63 10.6153C62.9814 10.6044 62.962 10.5929 62.9433 10.5821C62.9189 10.6333 62.8888 10.683 62.8716 10.7363C62.5925 11.5845 62.0314 12.1805 61.2573 12.587C60.5843 12.9408 59.859 13.1159 59.1128 13.2046C58.1543 13.3184 57.1929 13.3264 56.2337 13.2103C55.9452 13.1757 55.6597 13.1138 55.3727 13.0648C55.3282 13.0576 55.2837 13.0525 55.2378 13.046C55.179 14.6307 56.1712 15.822 57.7181 16.0389C58.8488 16.1975 59.9659 16.0958 61.0722 15.835C61.3369 15.7723 61.5995 15.7016 61.8636 15.6404C61.9575 15.6188 62.0558 15.6022 62.1513 15.6044C62.3113 15.6072 62.4304 15.6872 62.4791 15.8472C62.505 15.9308 62.5279 16.0187 62.5286 16.1052C62.5329 16.547 62.5301 16.9895 62.5294 17.4312C62.5294 17.7764 62.3672 17.9962 62.0472 18.123C61.2752 18.43 60.4781 18.6376 59.6574 18.7442C58.7484 18.8624 57.835 18.8776 56.9253 18.75C55.3383 18.5273 53.9945 17.8665 53.0539 16.503C52.5682 15.7989 52.2747 15.0113 52.1269 14.171C51.8572 12.6309 51.8808 11.0966 52.3364 9.59336C52.8229 7.98702 53.7771 6.75614 55.3038 6.03188C56.347 5.53679 57.4612 5.40563 58.6006 5.45392C59.2735 5.48202 59.935 5.58435 60.5635 5.84019C61.7086 6.30573 62.5193 7.09557 62.8838 8.31204C62.9003 8.36609 62.934 8.41437 62.9591 8.46554C62.9656 8.46193 62.9735 8.45905 62.9792 8.45473C62.9864 8.44824 62.9921 8.44031 62.9993 8.43311V10.6153H63ZM55.2558 10.8487C55.3254 10.8718 55.3698 10.8934 55.4165 10.9014C56.1174 11.0231 56.8249 11.0772 57.5351 11.0642C57.9821 11.0563 58.4269 11.0195 58.8545 10.8639C59.4163 10.6592 59.7356 10.2592 59.7736 9.65966C59.8281 8.81001 59.4938 8.16574 58.564 8.00864C58.2978 7.96396 58.0223 7.94955 57.7525 7.96036C56.8191 7.99567 56.1282 8.43239 55.6963 9.27627C55.448 9.762 55.3246 10.283 55.2551 10.8487H55.2558Z" fill="#00FFFF"/>
<path d="M26.8337 0C26.8286 0.020899 26.8164 0.0576525 26.8207 0.0605351C26.8717 0.0864787 26.9255 0.108098 26.9793 0.128277C27.823 0.445365 28.3116 1.15377 28.1653 2.29673C28.0555 3.15503 27.3718 3.76182 26.4692 3.83893C26.099 3.87064 25.7302 3.86848 25.3744 3.75173C24.4216 3.43825 24.0112 2.63616 24.1145 1.65895C24.1948 0.905144 24.6052 0.399964 25.304 0.129718C25.3636 0.106657 25.4174 0.0663003 25.4741 0.0345915C25.4691 0.0288262 25.4647 0.0216197 25.4583 0.0165751C25.4511 0.0100892 25.4418 0.00576525 25.4339 0.000720656C25.9002 0.000720656 26.3673 0.000720656 26.8337 0.000720656V0Z" fill="#00FFFF"/>
<path d="M42.2224 8.84604V9.24024C42.2224 12.0313 42.2224 14.8217 42.2224 17.6128C42.2224 17.7303 42.2267 17.8499 42.2131 17.9659C42.1715 18.3133 42.0251 18.4452 41.6786 18.461C41.6205 18.4639 41.5616 18.4625 41.5035 18.4632C40.794 18.4632 40.0844 18.4632 39.3748 18.4632C39.2873 18.4632 39.199 18.4661 39.113 18.4545C38.8575 18.4214 38.709 18.2744 38.6775 18.0164C38.6631 17.8996 38.6667 17.7807 38.6667 17.6633C38.6667 15.1179 38.6696 12.5733 38.6617 10.0279C38.661 9.74614 38.6301 9.45716 38.5634 9.18403C38.4278 8.62913 38.054 8.31708 37.4937 8.24862C36.7654 8.15998 36.0616 8.29402 35.3721 8.52031C35.1239 8.60174 34.8857 8.71705 34.6418 8.81289C34.5262 8.85829 34.4746 8.9354 34.4882 9.06224C34.4954 9.12998 34.4897 9.19989 34.4897 9.26835C34.4897 12.0494 34.4897 14.8304 34.4897 17.6114C34.4897 17.749 34.4925 17.8874 34.4767 18.0236C34.4466 18.2902 34.3074 18.425 34.0434 18.456C33.976 18.4639 33.9078 18.4625 33.8396 18.4625C33.0913 18.4625 32.343 18.4625 31.594 18.4625C31.5165 18.4625 31.4369 18.4646 31.3615 18.4502C31.152 18.4113 31.005 18.2953 30.9677 18.0733C30.9483 17.958 30.9368 17.8391 30.9368 17.7224C30.9354 13.998 30.9354 10.2737 30.9354 6.54931C30.9354 6.53922 30.9354 6.52986 30.9354 6.51977C30.9433 5.96198 31.0774 5.8265 31.6299 5.82433C32.155 5.82217 32.6795 5.82217 33.2047 5.82433C33.7162 5.8265 33.8619 5.9418 34.0097 6.44842C34.0635 6.63435 34.123 6.81884 34.1826 7.01414C34.4983 6.82316 34.7874 6.643 35.0816 6.47148C35.9045 5.99153 36.7748 5.64129 37.7218 5.51013C38.45 5.40924 39.1754 5.40635 39.8907 5.60453C40.611 5.80416 41.1914 6.207 41.6104 6.83758C41.6477 6.89379 41.6872 6.94928 41.7353 7.01846C41.906 6.9118 42.0696 6.80875 42.2332 6.70714C43.092 6.17457 43.9996 5.76092 44.9961 5.57355C45.7659 5.42941 46.5372 5.38618 47.3128 5.53823C48.625 5.79479 49.5599 6.72371 49.8088 8.05693C49.877 8.42158 49.9136 8.79776 49.915 9.1689C49.9236 12.0184 49.9172 14.8686 49.9215 17.718C49.9222 18.4286 49.651 18.4726 49.1839 18.4654C48.4844 18.4545 47.7842 18.4625 47.0846 18.4625C46.9971 18.4625 46.9089 18.4654 46.8228 18.4553C46.553 18.4243 46.4023 18.2729 46.3729 17.9998C46.3607 17.8831 46.3636 17.7642 46.3636 17.6467C46.3636 15.1215 46.3665 12.5956 46.3586 10.0704C46.3578 9.7692 46.3277 9.45932 46.2553 9.16818C46.1204 8.62696 45.7509 8.32069 45.2027 8.25006C44.4745 8.1571 43.7707 8.29618 43.0805 8.51598C42.7949 8.60679 42.5194 8.73146 42.2231 8.84676L42.2224 8.84604Z" fill="#00FFFF"/>
<path d="M30.2057 31.3262C30.2129 31.1518 30.2208 31.0379 30.2215 30.924C30.2222 29.1159 30.2215 27.3085 30.2243 25.5004C30.2243 25.3447 30.2423 25.1869 30.2688 25.0334C30.3061 24.8114 30.459 24.7012 30.667 24.6594C30.705 24.6514 30.7445 24.6493 30.7832 24.6493C31.6679 24.6493 32.5518 24.6435 33.4364 24.6522C33.7772 24.6558 33.93 24.8208 33.9508 25.1617C33.958 25.2791 33.9551 25.3973 33.9551 25.5155C33.9551 31.3615 33.9551 37.2074 33.9551 43.0527C33.9551 43.1709 33.9587 43.289 33.9494 43.4065C33.9257 43.689 33.8009 43.8346 33.5282 43.8922C33.4149 43.916 33.2972 43.9254 33.1817 43.9261C32.5891 43.9297 31.9957 43.9275 31.4031 43.9275C31.345 43.9275 31.2862 43.9275 31.2281 43.9225C30.8622 43.8879 30.6857 43.7438 30.5802 43.3885C30.525 43.204 30.4769 43.0174 30.4159 42.7954C30.314 42.8588 30.2459 42.8905 30.1906 42.9366C29.4086 43.5932 28.5146 44.014 27.508 44.1387C26.0717 44.3167 24.7157 44.1077 23.547 43.1557C22.7391 42.4978 22.178 41.6604 21.81 40.6875C21.4993 39.8652 21.3429 39.012 21.2762 38.1328C21.1837 36.9148 21.2812 35.7186 21.5919 34.5432C21.8961 33.3923 22.4457 32.3754 23.3059 31.5445C24.1173 30.7604 25.0859 30.3453 26.2023 30.2445C27.3351 30.1421 28.4085 30.3309 29.4201 30.8556C29.669 30.9846 29.9029 31.1438 30.2078 31.3276L30.2057 31.3262ZM30.2215 37.1844C30.2215 36.1531 30.2121 35.1226 30.2279 34.0913C30.2322 33.8016 30.1347 33.6445 29.8742 33.5306C29.0922 33.1883 28.2793 33.0298 27.432 33.0903C26.8422 33.1321 26.3034 33.3332 25.9196 33.8117C25.7266 34.0524 25.5587 34.3255 25.4346 34.6087C25.1433 35.2732 25.0543 35.9888 25.0342 36.7066C25.0192 37.2644 25.0472 37.825 25.0902 38.3814C25.1304 38.9017 25.2559 39.409 25.4769 39.8847C25.8313 40.6464 26.406 41.1278 27.2368 41.277C28.2069 41.4514 29.1037 41.2373 29.9603 40.7732C30.1612 40.6644 30.2272 40.5304 30.2251 40.3063C30.215 39.2656 30.2208 38.225 30.2208 37.1836L30.2215 37.1844Z" fill="#00FFFF"/>
<path d="M39.9696 38.1811C40.0449 39.0055 40.2186 39.742 40.7237 40.356C41.0508 40.7531 41.4899 40.9866 41.9713 41.1358C42.4097 41.2713 42.861 41.3267 43.3201 41.344C44.4494 41.3866 45.545 41.1898 46.6298 40.9059C46.7238 40.8814 46.817 40.8533 46.9124 40.8345C47.2332 40.7711 47.4391 40.9275 47.4764 41.259C47.4821 41.308 47.4821 41.357 47.4821 41.406C47.4821 41.819 47.4749 42.2312 47.4835 42.6441C47.4922 43.039 47.3164 43.2913 46.9555 43.4339C46.2007 43.733 45.4244 43.9528 44.6202 44.0443C44.0232 44.1128 43.4199 44.1683 42.8208 44.1553C41.736 44.1315 40.6756 43.9543 39.6912 43.4491C38.4637 42.8185 37.6285 41.8355 37.1407 40.5448C36.8752 39.8429 36.7425 39.1136 36.6779 38.3641C36.5717 37.1376 36.6571 35.9312 36.9835 34.7464C37.2619 33.7361 37.7469 32.8374 38.4744 32.0815C39.3691 31.1511 40.4725 30.6329 41.7274 30.4405C42.6931 30.2928 43.6624 30.2863 44.6223 30.4939C45.4739 30.6776 46.2423 31.03 46.873 31.6584C47.401 32.1845 47.7461 32.8064 47.9011 33.5379C48.0453 34.2196 48.0582 34.9021 47.8868 35.581C47.6557 36.4976 47.1191 37.1758 46.304 37.6334C45.5873 38.0355 44.8139 38.2524 44.0039 38.3331C43.473 38.3858 42.9399 38.434 42.4075 38.4384C41.6987 38.4441 40.9913 38.3858 40.2961 38.2308C40.2035 38.2099 40.1081 38.202 39.9696 38.1818V38.1811ZM41.9304 36.156C42.6213 36.1366 43.0956 36.1114 43.5569 35.978C44.1746 35.7993 44.5793 35.4224 44.6438 34.7508C44.6632 34.549 44.6503 34.34 44.6216 34.1382C44.5484 33.6165 44.2593 33.2583 43.7678 33.0788C43.1838 32.8655 42.5883 32.8583 41.9914 33.0161C41.4777 33.1516 41.053 33.4269 40.7323 33.8629C40.3434 34.3897 40.1676 34.9972 40.0571 35.6314C40.0076 35.9161 40.0162 35.9442 40.2917 35.9773C40.9073 36.0523 41.5243 36.1128 41.9297 36.1568L41.9304 36.156Z" fill="#00FFFF"/>
<path d="M6.72903 40.3683C6.77208 40.2292 6.81727 40.0908 6.85817 39.951C7.51249 37.6982 8.16538 35.4462 8.81898 33.1934C8.99691 32.5809 9.17413 31.9683 9.35205 31.3557C9.36569 31.3089 9.38004 31.2613 9.39582 31.2152C9.54577 30.7807 9.76244 30.6135 10.2187 30.6091C10.9477 30.6019 11.6766 30.6063 12.4056 30.6063C12.5419 30.6063 12.6782 30.6012 12.8138 30.6099C13.1503 30.6308 13.288 30.7965 13.2335 31.1331C13.2105 31.2772 13.1603 31.4184 13.1094 31.5554C12.2606 33.8139 11.4097 36.0724 10.5588 38.3302C9.95687 39.9272 9.35564 41.5249 8.75369 43.1219C8.72284 43.204 8.68554 43.2848 8.65253 43.3662C8.5033 43.7359 8.22206 43.9182 7.83607 43.9218C7.06839 43.9297 6.3007 43.9276 5.53302 43.9233C5.05807 43.9204 4.79261 43.6408 4.63692 43.2141C4.41522 42.6059 4.1842 42.0013 3.95605 41.3952C3.04703 38.981 2.13729 36.5668 1.22756 34.1526C0.902549 33.29 0.574671 32.4281 0.253967 31.5633C0.192983 31.399 0.139891 31.2267 0.12052 31.0538C0.0911039 30.7907 0.217377 30.6502 0.477814 30.6135C0.544537 30.6041 0.613413 30.6063 0.681572 30.6063C1.50737 30.6063 2.33388 30.6041 3.15967 30.6063C3.70494 30.6084 3.9087 30.754 4.0651 31.293C4.46473 32.6688 4.85431 34.0481 5.24604 35.426C5.70019 37.0215 6.15291 38.6171 6.60706 40.2119C6.62284 40.2674 6.64652 40.32 6.66661 40.374C6.68741 40.3719 6.70822 40.3697 6.72903 40.3675V40.3683Z" fill="#00FFFF"/>
<path d="M18.0225 7.64546C18.0792 7.59069 18.1416 7.53448 18.1997 7.47323C18.6058 7.04804 19.0363 6.65312 19.5292 6.33027C20.3284 5.80779 21.2095 5.63628 22.145 5.7069C22.4923 5.73284 22.6336 5.87986 22.6379 6.23442C22.6465 6.98102 22.6473 7.72762 22.6372 8.47422C22.6322 8.83238 22.4715 8.98805 22.1135 9.00966C21.9693 9.01831 21.8222 9.00318 21.6773 8.99021C20.4834 8.88139 19.3391 9.09326 18.1933 9.51917C18.1933 9.63736 18.1933 9.75338 18.1933 9.86869C18.1933 12.4623 18.1933 15.0552 18.1933 17.6489C18.1933 17.7764 18.1962 17.9054 18.1753 18.0308C18.128 18.3141 17.9895 18.4337 17.7033 18.4589C17.6552 18.4632 17.6064 18.4632 17.5576 18.4632C16.8 18.4632 16.0416 18.4661 15.284 18.4632C14.8004 18.4611 14.6383 18.2975 14.6383 17.8053C14.6368 14.0233 14.6376 10.2413 14.6383 6.45854C14.6383 6.39008 14.6383 6.32018 14.6483 6.25244C14.6849 6.00021 14.8148 5.86833 15.0652 5.83518C15.1706 5.82148 15.2783 5.82148 15.3852 5.82076C15.8709 5.81932 16.3566 5.81932 16.843 5.82076C17.4371 5.8222 17.5849 5.94183 17.7248 6.53205C17.8109 6.89454 17.8977 7.25631 17.9852 7.6188C17.9867 7.62456 17.9989 7.62817 18.0247 7.64474L18.0225 7.64546Z" fill="#00FFFF"/>
<path d="M18.7866 37.2875C18.7866 39.2325 18.7809 41.1783 18.7902 43.1233C18.7931 43.6653 18.7063 43.9298 17.9996 43.9276C17.2807 43.9254 16.5611 43.9276 15.8422 43.9276C15.8128 43.9276 15.7841 43.9276 15.7547 43.9276C15.2589 43.9125 15.0702 43.7229 15.0551 43.2257C15.053 43.1471 15.0544 43.0686 15.0544 42.99C15.0544 39.1684 15.0544 35.3467 15.0559 31.5244C15.0559 31.3586 15.0709 31.1914 15.0917 31.0264C15.1226 30.7893 15.2783 30.6675 15.4992 30.6272C15.594 30.6099 15.6922 30.6084 15.7891 30.6084C16.5568 30.607 17.3245 30.6077 18.0921 30.6084C18.1503 30.6084 18.2091 30.607 18.2672 30.612C18.6116 30.6394 18.7536 30.7814 18.7809 31.1295C18.7902 31.2469 18.7866 31.3651 18.7866 31.4833C18.7866 33.419 18.7866 35.354 18.7866 37.2896V37.2875Z" fill="#00FFFF"/>
<path d="M24.372 12.1293C24.372 10.2715 24.3713 8.41435 24.372 6.5565C24.372 5.93962 24.4897 5.82287 25.1089 5.82143C25.8184 5.81999 26.528 5.81927 27.2376 5.82143C27.795 5.82359 27.9278 5.95403 27.9278 6.51614C27.9292 10.2607 27.9285 14.0052 27.9285 17.7497C27.9285 17.7793 27.9285 17.8088 27.9285 17.8384C27.9106 18.3017 27.7592 18.4596 27.3057 18.4617C26.5381 18.4661 25.7697 18.4661 25.002 18.4617C24.5335 18.4589 24.3735 18.2974 24.3728 17.8189C24.3699 15.9221 24.3713 14.0254 24.3713 12.1286L24.372 12.1293Z" fill="#00FFFF"/>
<path d="M16.9148 28.5452C16.3982 28.5409 15.9175 28.4249 15.4956 28.102C15.1807 27.8613 14.9712 27.5493 14.8729 27.168C14.6928 26.4697 14.7559 25.8067 15.2008 25.2129C15.4526 24.8778 15.8006 24.6861 16.1909 24.5773C16.6866 24.4382 17.1874 24.4346 17.6846 24.5838C18.5004 24.8281 18.9624 25.3887 19.0571 26.2305C19.1418 26.9843 18.9567 27.6566 18.3153 28.1315C17.8991 28.44 17.4242 28.5524 16.9148 28.5445V28.5452Z" fill="#00FFFF"/>
<path d="M24.6066 63.4804C22.8467 63.1907 21.109 62.7979 19.3979 62.2913C13.3964 60.5149 8.01183 57.5717 3.21921 53.5195C2.33028 52.7678 1.48942 51.9578 0.631341 51.1687C0.517983 51.0649 0.417539 50.9366 0.343641 50.8019C0.217368 50.572 0.256111 50.2787 0.406777 50.1093C0.564618 49.9321 0.81788 49.8845 1.07975 49.9976C1.2132 50.0553 1.33876 50.1331 1.46288 50.2102C4.3076 51.9938 7.28792 53.5072 10.3945 54.7676C13.5083 56.031 16.7053 57.0204 19.9833 57.7396C21.7634 58.1302 23.5577 58.4365 25.3671 58.657C28.2556 59.0094 31.152 59.1629 34.0613 59.0728C36.3048 59.0029 38.5354 58.799 40.7523 58.4545C46.0637 57.6294 51.177 56.1174 56.0758 53.8776C56.3154 53.7681 56.5543 53.6629 56.8291 53.6715C57.5724 53.6953 58.0179 54.457 57.642 55.1056C57.5229 55.3117 57.3385 55.4912 57.1513 55.6418C55.7357 56.7768 54.2255 57.7677 52.6442 58.6491C49.5591 60.3693 46.2968 61.6348 42.8946 62.545C40.7832 63.11 38.6416 63.5193 36.472 63.7722C35.7559 63.8558 35.0356 63.9027 34.3174 63.9683C33.935 64.0562 26.5997 63.9683 24.6066 63.4789V63.4804Z" fill="#00FFFF"/>
<path d="M56.3872 51.8274C55.4014 51.9146 54.2563 52.0126 53.112 52.12C52.6564 52.1625 52.2029 52.2281 51.7481 52.2828C51.7194 52.2864 51.69 52.2929 51.6613 52.2922C51.4919 52.2864 51.3233 52.2699 51.2286 52.102C51.1368 51.9391 51.1648 51.7647 51.2674 51.6278C51.3829 51.4728 51.5185 51.3251 51.672 51.2098C52.6463 50.4783 53.7383 49.9904 54.9056 49.6791C56.9217 49.1415 58.9607 49.0291 61.014 49.4254C61.4503 49.5098 61.8736 49.669 62.2954 49.816C62.7087 49.9602 62.8888 50.2873 62.9483 50.7133C63.0358 51.3445 63.0036 51.9744 62.9282 52.5999C62.6836 54.6322 62.111 56.5664 61.1884 58.3911C60.6166 59.5218 59.9135 60.5581 58.993 61.4316C58.8595 61.5584 58.7103 61.6744 58.5517 61.7667C58.3953 61.8575 58.2131 61.8885 58.0595 61.7494C57.9218 61.6247 57.9067 61.4589 57.9548 61.2867C57.9864 61.1736 58.0208 61.0597 58.061 60.9494C58.6443 59.3618 59.2132 57.7699 59.6329 56.1283C59.8353 55.3363 60.0218 54.5399 60.0304 53.7162C60.0326 53.4813 60.0125 53.2442 59.978 53.0114C59.9235 52.6403 59.6989 52.3967 59.3668 52.2389C58.9363 52.0349 58.475 51.9557 58.0093 51.9139C57.5243 51.8706 57.0365 51.8613 56.3872 51.8288V51.8274Z" fill="#00FFFF"/>
</g>
<defs>
<clipPath id="clip0_267_357">
<rect width="63" height="64" fill="white"/>
</clipPath>
</defs>
</svg>
